<svg width="96" height="30" viewBox="0 0 96 30" fill="none" xmlns="http://www.w3.org/2000/svg">
<path fill-rule="evenodd" clip-rule="evenodd" d="M5 14.9985C5 8.37189 10.3731 3 17.0004 3C23.6274 3 29 8.37189 29 14.9985C29 21.6273 23.6274 27 17.0004 27C10.3731 27 5 21.6273 5 14.9985ZM11.2519 12.661C11.2519 11.1867 12.1482 10.1028 13.6216 10.1028L15.5845 10.0966V5.68945C11.055 6.37145 7.58063 10.2774 7.58063 14.9985C7.58063 19.7205 11.055 23.6346 15.5845 24.3176L15.5775 19.8923H13.9364C12.461 19.8923 11.2519 18.755 11.2519 17.2813V12.661ZM18.3701 10.1119V5.6781C22.9227 6.34138 26.4201 10.2619 26.4201 14.9985C26.4201 19.7345 22.9305 23.6613 18.3791 24.3259L18.3714 19.8614H20.1372C21.6126 19.8614 22.6963 18.755 22.6963 17.2813V12.661C22.6963 11.1867 21.5216 10.1098 20.046 10.1098L18.3701 10.1119ZM18.403 17.3121L14.1034 17.31C14.1034 17.31 13.9737 17.2961 13.9076 17.1824C13.8431 17.071 13.86 17.0107 13.86 17.0107V13.0039C13.86 13.0039 13.8545 12.8617 13.9317 12.7754C14.0045 12.6941 14.1392 12.6905 14.1392 12.6905H19.8041C19.8041 12.6905 19.8952 12.6765 19.9991 12.7348C20.0895 12.783 20.1393 12.971 20.1393 12.971V17.0842C20.1393 17.0842 20.0895 17.1987 20.0398 17.2386C19.9955 17.2771 19.9017 17.3093 19.9017 17.3093L18.403 17.3121Z" fill="#A1233A"/>
<path fill-rule="evenodd" clip-rule="evenodd" d="M70.4396 21.7194C70.6786 21.7194 71.0708 21.7967 71.3006 21.9092C71.5332 22.0246 71.7222 22.1187 71.8242 22.1112C71.8861 22.1052 71.9383 21.9838 71.9604 21.9092C72.0624 21.7777 72.0988 22.0143 72.0988 22.0063L72.1815 23.1822C72.1815 23.1822 72.0988 23.2961 72.016 23.1822C71.9283 22.9043 71.6985 22.596 71.5388 22.4325C71.3006 22.1886 70.8684 21.9432 70.4104 21.9357C69.8881 21.9275 69.5258 22.1315 69.2554 22.4508C69.0472 22.6942 68.9159 23.086 68.8923 23.5062H68.8914L68.8884 23.5748C68.8876 23.5985 68.8873 23.6221 68.8873 23.6458C68.8873 24.2016 69.137 24.8484 69.4852 25.1627C69.8225 25.4679 70.1843 25.6224 70.6599 25.6231C71.0002 25.6231 71.1922 25.5356 71.4832 25.3805C71.6479 25.2944 71.8713 25.0645 72.0724 24.8829C72.1902 24.7866 72.2543 24.9181 72.2543 24.9181C72.2714 25.0144 71.8934 25.3893 71.5852 25.6231C71.3554 25.7979 70.7598 26 70.4573 26C69.7469 26 69.336 25.964 68.7146 25.4319C68.3615 25.1303 68.1626 24.5081 68.1591 23.9102C68.1591 23.7692 68.1697 23.6337 68.1918 23.5015H68.1919L68.2058 23.4266C68.2872 23.0235 68.4763 22.6714 68.7705 22.3716C69.1955 21.9364 69.749 21.7194 70.4396 21.7194ZM82.4058 21.792C82.4734 21.8322 83.0309 22.4073 83.64 23.0485L83.7253 23.1384L83.811 23.2288L83.9825 23.4103C84.0111 23.4405 84.0395 23.4707 84.0679 23.5008L83.6829 23.5015L84.0679 23.5028C84.4287 23.8831 84.7704 24.2505 85.0044 24.5081C85.244 24.7785 85.3362 24.7337 85.3254 24.4728C85.3312 24.4728 85.3333 23.9875 85.3341 23.5015L85.3343 23.4566L85.3346 23.3648C85.3352 23.2124 85.3355 23.0644 85.3357 22.9361L85.3359 22.8615C85.3359 22.8495 85.3359 22.8377 85.3359 22.8262L85.3361 22.6731L85.3362 22.5186C85.3362 22.2407 85.1884 22.1458 85.1249 22.1017C84.9915 22.0103 84.8667 21.9445 84.6477 21.9086L84.6439 21.9074C84.6186 21.8985 84.4804 21.8452 84.6477 21.792C84.6497 21.793 84.7181 21.7936 84.8241 21.7939L85.211 21.794L85.3176 21.7939C85.5683 21.7935 85.8271 21.7928 85.9718 21.7923L86.0265 21.7922L86.0479 21.7921L86.088 21.792C86.1879 21.788 86.1879 21.8659 86.088 21.8929C85.9595 21.8929 85.8055 21.9898 85.722 22.0827C85.6393 22.1749 85.5971 22.3837 85.5971 22.7145L85.5965 23.5028H85.5958L85.5929 25.9031C85.5852 26.0273 85.4809 25.9929 85.4463 25.9779L85.4366 25.9734C85.4357 25.973 85.4353 25.9728 85.4353 25.9728C85.4353 25.9728 84.7819 25.2955 84.0761 24.5627L83.9838 24.4669C83.9684 24.4509 83.953 24.4348 83.9375 24.4188L83.8449 24.3226L83.7524 24.2265C83.5075 23.972 83.2672 23.7221 83.0565 23.5027L83.0534 23.5028C82.7224 23.1531 82.4649 22.8847 82.3787 22.7918C82.3743 22.7884 82.3265 22.7037 82.2475 22.7573C82.199 22.7911 82.1924 22.8066 82.199 22.8853L82.1991 23.0146L82.1992 23.1255C82.1993 23.1359 82.1993 23.1466 82.1993 23.1575L82.1994 23.2261C82.1996 23.2885 82.1998 23.3573 82.2 23.4305L82.2003 23.5028L82.2002 23.5046L82.2006 23.6016C82.201 23.7022 82.2014 23.8074 82.2018 23.913L82.2021 24.007L82.2025 24.1005L82.2028 24.193C82.2041 24.5296 82.2053 24.8326 82.2058 24.9592L82.206 25.0008L82.2061 25.0219C82.2061 25.3655 82.3302 25.5553 82.4372 25.659C82.5042 25.7268 82.6162 25.7837 82.8586 25.8054C83.0056 25.7979 82.9779 25.9457 82.9779 25.9457L81.298 25.9464C81.298 25.9464 81.2709 25.823 81.4 25.7899C81.4 25.7979 81.6938 25.703 81.8037 25.5451C81.8728 25.4481 81.9165 25.354 81.9165 25.0219L81.8936 23.5028L81.8778 22.4142C81.8593 22.2157 81.701 22.0739 81.6296 22.0401C81.5383 21.9961 81.3884 22.0063 81.3086 21.9445C81.3086 21.9445 81.1246 21.8137 81.2809 21.788C81.2752 21.7899 81.5205 21.782 81.7834 21.7773L81.8824 21.7757C81.9452 21.7748 82.0074 21.7742 82.0657 21.7741L82.1337 21.7741C82.2871 21.7747 82.4009 21.7794 82.4058 21.792ZM75.9615 21.792L77.7855 21.7927L77.7864 21.7937L77.7923 21.8011C77.8106 21.8255 77.8518 21.8958 77.732 21.9092C77.5829 21.9011 77.5236 21.9628 77.4501 22.0334C77.3789 22.1017 77.3439 22.2447 77.3439 22.4726V23.5028L77.346 25.2401C77.346 25.4679 77.3932 25.539 77.4659 25.6069C77.5358 25.6678 77.6135 25.7742 77.8583 25.7979C77.9882 25.8162 78.0422 25.9382 77.896 25.9464C77.9007 25.9546 77.5375 25.9628 77.1487 25.9692L77.0373 25.971C76.6574 25.9769 76.2842 25.9809 76.2328 25.9815L76.2268 25.9815L76.226 25.9811L76.2196 25.9781C76.1838 25.9605 76.0345 25.8771 76.254 25.8054C76.254 25.8162 76.4466 25.7464 76.5214 25.6332C76.5686 25.5573 76.6028 25.354 76.6028 25.215L76.6029 25.2053C76.6033 25.1578 76.6052 24.9422 76.6071 24.7121L76.6078 24.6196C76.6094 24.4173 76.6109 24.2195 76.6112 24.1291L76.6113 24.0972C76.6113 23.9935 76.5742 23.8533 76.4279 23.8804L76.4257 23.8804L76.3757 23.8802L76.3285 23.8801C76.1756 23.8796 75.8664 23.8784 75.5442 23.8765L75.3732 23.8754C74.9559 23.8725 74.5591 23.8681 74.4928 23.8621C74.3914 23.8533 74.3266 23.9049 74.3266 24.0899C74.3281 24.0888 74.3288 24.1693 74.329 24.2872L74.329 24.4473L74.3289 24.4874L74.3288 24.5697C74.3283 24.7919 74.3273 25.0296 74.3268 25.1343L74.3267 25.1671C74.3266 25.1714 74.3266 25.1751 74.3266 25.1782L74.3266 25.1892C74.3266 25.4149 74.4557 25.5994 74.5298 25.6665C74.6004 25.7316 74.7345 25.7952 74.9799 25.8162C75.1904 25.842 75.0328 25.9464 75.0328 25.9464L73.0817 25.9457L73.0748 25.9393C73.053 25.9174 72.9944 25.8459 73.126 25.8162C73.1152 25.817 73.4 25.64 73.4656 25.5716C73.5297 25.5078 73.5847 25.4001 73.5847 25.1276L73.5968 23.5028H73.5961L73.604 22.5289C73.604 22.3038 73.5555 22.1771 73.502 22.093C73.4391 21.9873 73.288 21.9715 73.0432 21.9533C73.0432 21.9533 72.6951 21.8746 73.0169 21.7967C73.0159 21.8003 73.1358 21.802 73.3126 21.8026L73.5975 21.8026C73.6508 21.8025 73.7057 21.8024 73.7612 21.8022L73.8729 21.8018C74.246 21.8003 74.6196 21.7976 74.7107 21.7969L74.7316 21.7967C74.9142 21.805 74.7595 21.9086 74.7595 21.9086C74.6219 21.9092 74.5113 21.9533 74.442 22.0334C74.38 22.1092 74.3187 22.2407 74.3329 22.4726V23.391C74.3329 23.391 74.3296 23.4475 74.3522 23.5028L74.3543 23.5028C74.3772 23.5578 74.4235 23.6052 74.5192 23.6017C74.5613 23.5997 74.6243 23.5987 74.7019 23.5985L74.8018 23.5986C75.2968 23.6006 76.1738 23.6222 76.3381 23.6092C76.4622 23.5997 76.5349 23.5556 76.5742 23.5015H76.5756L76.5905 23.4773C76.6132 23.4341 76.6205 23.3882 76.6205 23.3477C76.6236 23.2667 76.6248 23.1541 76.625 23.0374L76.6249 22.9593C76.6244 22.725 76.6205 22.4983 76.6205 22.4983C76.6205 22.2753 76.557 22.1038 76.4864 22.0334C76.4166 21.9662 76.2582 21.9275 76.0128 21.9086C75.8402 21.8834 75.9615 21.792 75.9615 21.792ZM45.2269 21.7404C45.2599 21.7405 45.2936 21.7405 45.3276 21.7407L45.43 21.7411L45.504 21.7414C45.7116 21.7424 45.8984 21.7439 45.9498 21.7443L45.9637 21.7444L47.64 23.5028H47.6393L48.6801 24.594C48.6801 24.594 48.7842 24.7189 48.8448 24.6911C48.8554 24.6849 48.8699 24.5657 48.8699 24.5514C48.8734 24.4737 48.8747 24.2096 48.875 23.9022L48.875 23.6025L48.8749 23.5028C48.8744 23.2155 48.8735 22.9419 48.873 22.7873L48.8729 22.7426L48.8728 22.7327L48.8727 22.692C48.8727 22.6875 48.8727 22.6835 48.8726 22.6798L48.8726 22.6576C48.8726 22.6334 48.8732 22.6088 48.874 22.5841L48.8765 22.5098C48.8801 22.3735 48.8743 22.2386 48.7792 22.1357C48.6166 21.9587 48.2899 21.9255 48.1935 21.8929C48.1194 21.8659 48.1194 21.788 48.2021 21.7614C48.2021 21.7686 48.3326 21.7714 48.5152 21.7719L48.6607 21.7719C49.0514 21.7708 49.5618 21.7629 49.641 21.7616L49.6515 21.7614C49.7522 21.7702 49.6787 21.8659 49.6787 21.8659C49.5139 21.9092 49.3542 21.9445 49.2765 22.0401C49.1837 22.1526 49.1366 22.3234 49.1366 22.6576V23.5028H49.1373V25.9795H49.0153C49.0153 25.9795 48.3826 25.3259 47.6825 24.6041L47.5909 24.5096C47.5602 24.478 47.5295 24.4463 47.4988 24.4146L47.4064 24.3194C47.3602 24.2718 47.3141 24.2242 47.2681 24.1769L47.1765 24.0825C46.9791 23.8792 46.7872 23.6816 46.6133 23.5028L46.6113 23.5028C46.212 23.0908 45.9074 22.7803 45.8539 22.7287C45.7711 22.6501 45.744 22.7553 45.744 22.8597L45.7439 22.902C45.7439 22.9073 45.7439 22.913 45.7439 22.9191L45.7437 22.9604C45.7434 23.075 45.7425 23.273 45.7411 23.5008L45.5892 23.5017L45.7419 23.5028C45.7414 23.5751 45.741 23.6506 45.7406 23.7275L45.7401 23.8203C45.7399 23.867 45.7396 23.9139 45.7394 23.9607L45.7389 24.054C45.7371 24.4261 45.7356 24.7758 45.735 24.9147L45.7349 24.945C45.7349 24.9492 45.7349 24.9531 45.7348 24.9566L45.7348 24.9778C45.7348 25.3247 45.8088 25.537 46.0407 25.6529C46.1306 25.697 46.363 25.7531 46.4687 25.7729C46.5151 25.7804 46.5372 25.9056 46.5372 25.9056H44.8673C44.8673 25.9056 44.8238 25.8075 44.8673 25.7925C44.9914 25.7464 45.2167 25.6109 45.3031 25.5193C45.3866 25.4271 45.4507 25.3465 45.4507 25.0144L45.4507 25.0093C45.4502 24.9556 45.4457 24.4836 45.4413 23.9757L45.4405 23.8802C45.4402 23.8483 45.4399 23.8163 45.4396 23.7843L45.4388 23.6888L45.438 23.5941L45.4371 23.5023L45.4373 23.5008V23.5028C45.4346 23.1618 45.4327 22.8614 45.4323 22.7294L45.4322 22.6935C45.4322 22.4508 45.3408 22.1275 45.2212 22.0401C45.1013 21.9513 44.9585 21.8991 44.8088 21.8929C44.8088 21.8929 44.6889 21.7702 44.8172 21.7444C44.8274 21.7419 44.9172 21.7407 45.0426 21.7404L45.2269 21.7404ZM59.4028 21.7276C59.9963 21.7276 60.4878 21.815 60.8973 22.1886C61.2789 22.5369 61.5002 22.9571 61.555 23.5022L61.3916 23.5024L61.5542 23.5028C61.5629 23.5841 61.5671 23.6703 61.5685 23.7589C61.5685 24.4382 61.3389 24.9927 60.8809 25.3966C60.4735 25.7566 59.9001 25.9687 59.318 25.9707C58.7003 25.9707 58.1068 25.8135 57.6973 25.4149C57.2844 25.0104 57.1323 24.468 57.1281 23.8275C57.1281 23.7151 57.1344 23.6072 57.1473 23.5048L57.8613 23.5028H57.1481C57.2151 22.9959 57.4454 22.5973 57.8157 22.2583C58.2223 21.8896 58.8102 21.7289 59.4028 21.7276ZM88.6424 21.6673L89.4835 23.5028H89.4827L90.2846 25.2529C90.3945 25.4889 90.4693 25.6462 90.5307 25.7058C90.5984 25.7606 90.7624 25.827 90.873 25.8365C90.9379 25.8413 90.9002 25.9314 90.9002 25.9314L89.0961 25.9294C89.0961 25.9294 88.9762 25.8433 89.0961 25.7979C89.1696 25.7729 89.4592 25.6868 89.5062 25.514C89.527 25.4339 89.487 25.2529 89.405 25.0428C89.3465 24.895 89.1839 24.5717 89.0932 24.5108C89.0091 24.4558 88.6716 24.4851 88.3585 24.4761C88.0747 24.4681 87.6987 24.4578 87.5788 24.5196C87.4299 24.594 87.2657 25.1872 87.2307 25.2774C87.1972 25.3662 87.2307 25.5743 87.3129 25.6352C87.4512 25.7383 87.7279 25.817 87.8265 25.8453C87.8621 25.8543 87.8534 25.9484 87.8534 25.9484L86.2691 25.9539C86.2691 25.9539 86.2841 25.8725 86.3213 25.8365C86.359 25.8012 86.5737 25.7484 86.6615 25.644C86.6992 25.5973 87.0723 24.8132 87.4757 23.9547L87.5285 23.8423L87.5814 23.7295C87.5903 23.7106 87.5991 23.6918 87.6079 23.6729L87.6609 23.5599C87.6697 23.5411 87.6785 23.5223 87.6873 23.5035L87.9633 23.5028C87.8315 23.7889 87.6908 24.1203 87.7535 24.1786C87.7928 24.2172 88.1011 24.2409 88.3585 24.2322C88.6531 24.2219 88.9583 24.2497 88.9997 24.1969C89.0454 24.1401 88.882 23.8321 88.7261 23.5028L88.7259 23.5028C88.7222 23.494 88.7195 23.488 88.7172 23.4819C88.6801 23.4038 88.6349 23.3027 88.5885 23.2009L88.5573 23.1331C88.4638 22.9312 88.3708 22.7467 88.3314 22.7593C88.2951 22.7687 88.1905 23.0003 88.0852 23.2337L88.0536 23.3036C88.0326 23.3499 88.0119 23.3954 87.9919 23.4384C87.9825 23.4581 87.9725 23.4777 87.9633 23.4987L87.6879 23.5028C87.7221 23.43 87.7561 23.3575 87.7898 23.2857L87.84 23.1786C88.2144 22.3798 88.5333 21.6938 88.5333 21.6938L88.6424 21.6673ZM80.4376 21.792C80.5839 21.8137 80.4192 21.9086 80.4192 21.9086C80.2714 21.9092 80.1551 21.9838 80.0974 22.0496C80.0139 22.1458 80.0175 22.3411 80.006 22.4854V25.2651C80.006 25.5078 80.0911 25.6502 80.1715 25.7118C80.2471 25.7669 80.3399 25.8122 80.6118 25.8345C80.7706 25.8568 80.6407 25.9311 80.6157 25.9444L80.6118 25.9464L78.8505 25.9457C78.7113 25.9031 78.8505 25.8332 78.8505 25.8332C78.914 25.8162 79.0538 25.7436 79.1351 25.686C79.2122 25.6257 79.2557 25.5105 79.2586 25.2651L79.2671 23.5028L79.2721 22.5722C79.2621 22.3972 79.2621 22.1886 79.1714 22.1017C79.0388 21.9758 78.8884 21.9202 78.6165 21.9086C78.6165 21.9086 78.6149 21.9078 78.6122 21.9063L78.6018 21.8997C78.5749 21.8812 78.5282 21.8366 78.6165 21.792C78.6176 21.7954 78.744 21.797 78.9296 21.7975L79.2151 21.7977C79.2884 21.7976 79.3646 21.7974 79.4417 21.7971L79.5577 21.7967C79.9445 21.7953 80.324 21.7928 80.4164 21.7921L80.4376 21.792ZM65.0446 23.1314L65.0447 23.1509C65.045 23.2058 65.0465 23.3399 65.0488 23.5008L64.7855 23.502L65.0488 23.5028C65.0497 23.5782 65.0508 23.66 65.0519 23.7432L65.0542 23.9099C65.058 24.1857 65.0617 24.4393 65.0624 24.4831L65.0625 24.4898C64.9905 24.586 64.9262 24.4646 64.9262 24.4646C64.877 24.2219 64.8321 24.1345 64.7486 24.0546C64.673 23.9745 64.5581 23.8804 64.3934 23.8804L64.3859 23.8803C64.3569 23.8799 64.2469 23.8785 64.1319 23.877L64.0588 23.876C63.9503 23.8744 63.8518 23.8728 63.8293 23.8719L63.8248 23.8716C63.6129 23.8533 63.6036 24.0714 63.5952 24.1515L63.5951 24.1631C63.594 24.2744 63.5856 25.1471 63.5845 25.2555L63.5844 25.2666C63.5952 25.3805 63.6215 25.5315 63.6956 25.5986C63.7713 25.659 63.9589 25.7864 64.2108 25.8054C64.3278 25.8162 64.2471 25.9444 64.2471 25.9444H62.3374C62.3374 25.9444 62.2476 25.8861 62.3838 25.823C62.3838 25.8365 62.6136 25.7531 62.7135 25.6765C62.7862 25.6209 62.8439 25.5045 62.8439 25.2306L62.8489 23.5028H63.5902C63.5952 23.5408 63.6073 23.5746 63.6315 23.5841C63.6731 23.5982 63.8072 23.605 63.9516 23.6081L64.0309 23.6094C64.0706 23.6099 64.1099 23.6102 64.1472 23.6103L64.2513 23.6103C64.3054 23.6101 64.3487 23.6097 64.3727 23.6094L64.3934 23.6092C64.4725 23.6092 64.5618 23.5551 64.6181 23.5015H64.6192L64.6338 23.4869C64.6486 23.4713 64.6608 23.4568 64.6693 23.4446C64.7251 23.3483 64.8206 23.2365 64.8706 23.0955C64.8978 23.0169 65.0446 22.9551 65.0446 23.1314ZM42.2956 21.6307L43.1531 23.5028H42.397C42.387 23.4839 42.3778 23.4642 42.3685 23.4446C42.2486 23.1917 42.0481 22.7017 41.9833 22.7212C41.947 22.7301 41.8416 22.9624 41.7364 23.196L41.7049 23.2659C41.684 23.3122 41.6634 23.3577 41.6436 23.4005L41.6204 23.4509L41.5967 23.5028L41.5809 23.5377L41.5498 23.608C41.4421 23.8538 41.353 24.0934 41.4054 24.142C41.4447 24.1786 41.7529 24.2016 42.0104 24.1929C42.305 24.1841 42.6118 24.2119 42.6537 24.159C42.6951 24.1055 42.5467 23.8187 42.397 23.5035L43.1525 23.5028L43.9378 25.215C44.0462 25.4489 44.1197 25.6089 44.1845 25.6665C44.2496 25.7241 44.4135 25.7899 44.5234 25.7979C44.589 25.8034 44.5521 25.8941 44.5521 25.8941L42.7251 25.9382C42.7251 25.9382 42.6624 25.842 42.7815 25.7979C42.855 25.7714 43.1117 25.6502 43.1567 25.4739C43.1781 25.3966 43.1388 25.215 43.0569 25.0034C42.9984 24.8579 42.8358 24.5339 42.7436 24.4728C42.6624 24.4172 42.3227 24.447 42.0104 24.4382C41.9654 24.4369 41.9181 24.4356 41.8699 24.4345L41.7729 24.4327C41.5456 24.4297 41.3192 24.4362 41.2314 24.4816C41.0815 24.5589 40.9176 25.1479 40.8812 25.2401C40.8499 25.3289 40.8812 25.537 40.9645 25.5986C41.1029 25.701 41.3783 25.7804 41.4789 25.8054C41.5139 25.8162 41.5053 25.9111 41.5053 25.9111L39.921 25.9172C39.921 25.9172 39.9368 25.8345 39.9745 25.7979C40.0109 25.7634 40.2264 25.7105 40.3134 25.6069C40.3513 25.5592 40.7474 24.7254 41.1655 23.8356L41.2441 23.6683C41.2528 23.6497 41.2615 23.6311 41.2703 23.6124L41.3227 23.5008H41.3243L41.3489 23.4484C41.781 22.5243 42.1844 21.6565 42.1844 21.6565L42.2956 21.6307ZM52.102 21.7499L52.1066 21.7515C52.1312 21.76 52.2416 21.804 52.1197 21.8659C51.9992 21.9275 51.8901 21.8834 51.7908 21.9893C51.7225 22.0617 51.6811 22.2021 51.6796 22.4305V23.7489C51.6796 23.8017 51.7331 23.8796 51.7517 23.8804C51.8443 23.8906 51.8993 23.7814 51.9457 23.7589C52.0256 23.694 52.1225 23.6039 52.2282 23.5015H52.2302L52.3365 23.3999C52.4459 23.2949 52.5599 23.1852 52.6696 23.0866C53.1313 22.6684 53.3645 22.4528 53.4401 22.3546C53.5408 22.2232 53.5614 22.0414 53.5042 21.9798C53.4401 21.9092 53.3031 21.9092 53.184 21.8746C53.184 21.8746 53.0741 21.805 53.2019 21.7614C53.2019 21.7638 53.3129 21.7649 53.4747 21.7652L53.6933 21.7653C53.7715 21.7652 53.8539 21.765 53.9367 21.7648L54.036 21.7645C54.3329 21.7635 54.6136 21.762 54.6928 21.7616L54.7148 21.7614C54.7148 21.7614 54.7698 21.8929 54.6871 21.9275C54.4773 21.9452 54.4002 21.9873 54.2747 22.0496C54.1548 22.1078 53.9052 22.274 53.6876 22.4759C53.6876 22.4759 53.4114 22.7023 53.1404 22.9419L53.0668 23.0074C52.8235 23.2259 52.6056 23.4392 52.6248 23.4872C52.6267 23.4914 52.6286 23.4968 52.6319 23.5027L52.6327 23.5028C52.7025 23.6437 53.0343 24.0322 53.371 24.444L53.4518 24.5432C53.5593 24.6757 53.6652 24.8088 53.7611 24.9351C53.9466 25.1797 54.1313 25.4854 54.2391 25.5621C54.3411 25.6339 54.5037 25.7804 54.6421 25.7804C54.8012 25.7804 54.7248 25.9199 54.7248 25.9199C54.7248 25.9199 53.8631 25.8901 53.7155 25.9031C53.6135 25.9111 53.4923 25.7376 53.4957 25.7376C53.3735 25.5868 53.1705 25.3242 52.9572 25.0461L52.8859 24.9529C52.528 24.4857 52.1635 24.0054 52.1191 23.9583C52.0827 23.9319 51.6882 24.2111 51.6796 24.447C51.682 24.4445 51.6831 24.5062 51.6834 24.5958L51.6834 24.6933C51.6833 24.7185 51.6832 24.7446 51.6831 24.7712L51.6824 24.8918C51.6814 25.0433 51.68 25.1829 51.6796 25.2154L51.6796 25.2225C51.6796 25.4556 51.736 25.5743 51.8058 25.642C51.9265 25.7531 52.2295 25.7899 52.2295 25.7804C52.3679 25.8162 52.2746 25.9031 52.2746 25.9031H50.4497C50.4497 25.9031 50.3864 25.8162 50.5227 25.7899C50.5282 25.7979 50.7515 25.7376 50.855 25.5891C50.9071 25.5105 50.9733 25.4028 50.9733 25.1356V23.5028H50.9728V22.4671C50.9728 22.3023 50.9185 22.1425 50.8442 22.0747C50.773 22.0068 50.6589 21.9364 50.4041 21.9187L50.3956 21.9133C50.3603 21.8901 50.2361 21.7982 50.4041 21.7534C50.4062 21.7552 50.4912 21.756 50.6221 21.7562L50.799 21.7562C50.9122 21.756 51.0408 21.7556 51.172 21.755L51.2847 21.7546C51.642 21.7529 51.9917 21.7507 52.0804 21.7501L52.102 21.7499ZM37.5585 21.7466C38.0877 21.7466 38.4379 21.7682 38.7541 21.9187C38.9923 22.0313 39.2769 22.3023 39.2769 22.7072C39.2769 23.1464 38.9858 23.3653 38.7662 23.5022L38.294 23.5028C38.4737 23.4113 38.5657 23.2188 38.5715 22.8271C38.5736 22.5457 38.4031 22.2848 38.2126 22.1357C38.1027 22.0496 37.8916 21.9445 37.6526 21.9445C37.3224 21.9445 37.1047 21.9873 37.1047 22.284L37.1026 23.391C37.0976 23.4384 37.1155 23.475 37.1469 23.5028C37.291 23.6317 37.7346 23.5876 37.7346 23.5876C37.9715 23.5876 38.1577 23.5739 38.2932 23.5035L38.7668 23.5028C38.7048 23.5408 38.6492 23.5726 38.6071 23.6017C38.9736 23.696 39.5792 23.8974 39.5792 24.5514C39.5792 25.2305 39.1849 25.659 38.8089 25.7729C38.5514 25.8501 38.2297 25.8969 37.8616 25.9003H35.7916V25.7877C36.0111 25.7288 36.1739 25.6765 36.2409 25.5986C36.3144 25.5105 36.34 25.4544 36.3421 25.2205V22.4265C36.3408 22.2583 36.2958 22.1628 36.1945 22.0569C35.9963 21.8531 35.7644 21.9873 35.7273 21.9092C35.6988 21.851 35.7081 21.7466 35.7081 21.7466H37.5585ZM59.3109 21.9533C58.9177 21.9533 58.5227 22.0496 58.2652 22.3276C58.0254 22.5885 57.8971 22.9802 57.8613 23.5028C57.8565 23.5924 57.8536 23.6865 57.852 23.7834C57.852 24.443 58.1809 25.074 58.3843 25.2936C58.748 25.686 59.0012 25.7729 59.5035 25.7729C59.8516 25.7729 60.2039 25.5763 60.4757 25.2666C60.7033 25.0034 60.8145 24.5427 60.8145 23.8621C60.8145 23.7339 60.8074 23.6134 60.7945 23.5008H60.795L60.7859 23.4302C60.721 22.9773 60.5553 22.6503 60.3473 22.4075C60.0356 22.0401 59.699 21.9553 59.3109 21.9533ZM37.0984 24.1983L37.1026 25.2055C37.1026 25.7729 37.8452 25.7118 37.8452 25.7118C38.4516 25.7118 38.7177 25.3805 38.7904 25.0395C38.8874 24.5935 38.7818 24.2985 38.5072 24.0804C38.3767 23.9773 38.0286 23.8187 37.7453 23.8187C37.3545 23.8187 37.0984 23.7834 37.0984 24.1983ZM65.4306 21.7967C65.5118 21.8503 65.4691 22.4345 65.4841 22.5457C65.4947 22.6068 65.4441 22.7302 65.3856 22.737C65.3107 22.7463 65.2928 22.6216 65.2928 22.5457C65.2928 22.3892 65.1516 22.2061 65.1173 22.1628C65.0296 22.0496 64.8598 22.0299 64.7786 22.0299L63.7425 22.0299C63.693 22.0303 63.6729 22.0338 63.6508 22.0569C63.6265 22.0847 63.5886 22.154 63.5844 22.2407V23.4005C63.5844 23.4311 63.5859 23.4677 63.5902 23.4987L62.8489 23.5028L62.8526 22.5905C62.8526 22.3674 62.8241 22.2672 62.7414 22.1458C62.6592 22.0246 62.4573 21.9961 62.2191 21.9615C62.2191 21.9615 62.0451 21.8388 62.1677 21.7892L62.2186 21.7892C62.3613 21.7897 62.7821 21.7925 63.2171 21.7962L63.3217 21.7971C63.6004 21.7995 63.8763 21.8023 64.0801 21.805C64.7228 21.8137 65.3642 21.7554 65.4306 21.7967ZM40.312 4.2329C40.379 4.29525 40.5387 4.3651 40.6907 4.51285C40.8383 4.65785 41.1158 4.98187 41.2107 5.06452C41.364 5.19745 41.6594 5.55402 41.847 5.78039C41.9918 5.95319 42.0681 6.26843 42.0845 6.3796C42.1109 6.55167 42.0724 6.77749 42.1936 6.7998C42.3691 6.83162 42.7109 6.55167 43.2572 6.45421C43.6203 6.38911 44.2124 6.40466 44.604 6.40941L44.6312 6.4097L44.7572 6.40975C44.9262 6.41011 45.1205 6.41576 45.1419 6.47377C45.1932 6.61402 45.1034 7.04172 44.8807 7.5197C44.6854 7.94063 44.5784 8.02053 44.3529 8.29043C44.1682 8.51333 44.141 8.65504 43.805 9.07048C43.7184 9.1789 43.6086 9.30057 43.4969 9.42278L43.4358 9.48942C43.1513 9.79993 42.8785 10.0989 42.9649 10.1767C43.0725 10.2744 43.3913 10.1299 43.4442 10.3558C43.487 10.5381 43.2766 10.6553 43.201 10.8363C43.0988 11.087 43.1596 11.2687 42.922 11.3779C42.703 11.4781 42.5746 11.443 42.4368 11.5284C42.2721 11.6301 42.3364 11.8903 42.23 12.0793C42.0439 12.4136 42.1395 12.7341 42.026 13.0053C41.9494 13.1876 41.9155 13.2559 41.8886 13.3144L41.8766 13.341C41.8629 13.3721 41.8496 13.4051 41.8313 13.456L41.8113 13.5131C41.7965 13.5559 41.7788 13.6089 41.7564 13.6769C41.725 13.7678 41.6565 14.2335 41.618 14.3968C41.5851 14.5358 41.4731 14.6477 41.4689 14.6985C41.4647 14.7509 41.4519 14.8341 41.4377 14.9203L41.4254 14.9942C41.4049 15.1166 41.3857 15.2288 41.3891 15.2502C41.3975 15.3018 41.2955 15.3716 41.3042 15.4658C41.3127 15.5532 41.2157 15.7708 41.1985 15.9227C41.1322 16.5212 41.188 16.6019 41.2136 16.9347C41.2378 17.2682 41.1714 17.3408 41.1329 17.4282C41.1002 17.5095 40.9682 17.5278 40.8768 17.5529C40.7777 17.5787 40.7842 17.6809 40.7221 17.7006C40.6478 17.7237 40.5431 17.6503 40.5089 17.7067C40.4382 17.8246 40.364 17.9711 40.272 17.9786C40.1779 17.9846 40.145 17.9338 40.1186 17.7955C40.1115 17.759 40.0195 17.7502 40.0037 17.6741C39.976 17.5501 39.9481 17.6253 39.8319 17.4227C39.7362 17.2539 39.8182 17.1943 39.8076 17.0424C39.8005 16.9251 39.6356 16.8207 39.677 16.6357C39.6991 16.5368 39.6706 16.3382 39.6493 16.1714C39.625 15.9809 39.6171 15.8489 39.6171 15.7993C39.6193 15.7126 39.5887 15.7973 39.6129 15.5234C39.6335 15.2822 39.5544 15.0822 39.555 15.013C39.5565 14.9256 39.5209 14.8653 39.448 14.8653C39.3895 14.8638 39.3589 14.8958 39.3283 15.0341C39.2962 15.1723 39.2933 15.4495 39.3117 15.6163C39.3275 15.7708 39.4309 16.2032 39.4382 16.3415C39.448 16.528 39.4274 16.4386 39.4345 16.6873C39.4366 16.812 39.4959 17.1137 39.5423 17.281C39.5887 17.447 39.6899 17.4417 39.7228 17.5569C39.7576 17.6783 39.7919 17.7825 39.8369 17.8511C39.8946 17.9433 40.1171 17.9926 40.0886 18.0442C40.0559 18.108 39.9589 18.234 39.886 18.2422C39.7384 18.2565 39.4717 17.9691 39.4182 17.8429C39.3225 17.6165 39.259 16.8079 39.2084 16.513C39.122 16.0182 39.0337 15.7993 38.9702 15.2475C38.9046 14.6768 38.7604 13.1843 38.7639 12.8684C38.7668 12.6603 38.6221 12.5899 38.5428 12.5857C38.4473 12.5811 38.3246 12.6778 38.3174 12.7769C38.3088 12.8976 38.3388 13.1836 38.2041 13.2337C38.0956 13.2745 37.3158 13.0684 36.711 12.6895C35.7215 12.0678 35.37 10.5293 35.2058 10.2336C34.9826 9.83316 34.9768 9.00063 35.0232 8.83935C35.0703 8.67405 35.1373 8.48626 35.3036 8.43817C35.4148 8.40562 35.6338 8.81156 35.8485 9.03117C36.0633 9.25023 36.3843 9.52524 36.4507 9.58229C36.5234 9.64336 36.6925 9.88802 36.7559 9.8893C36.7895 9.8893 36.997 9.71998 37.1696 9.60807C37.3522 9.48867 37.7667 9.21896 37.8937 9.14033C37.9965 9.07597 38.3132 8.85709 38.508 8.71465C38.5626 8.67538 38.6352 8.62649 38.7118 8.57561L38.778 8.53169C38.9554 8.41423 39.1324 8.29776 39.142 8.27342C39.1507 8.25038 39.1328 8.16078 39.1992 7.98872C39.2398 7.88303 39.1513 7.83695 39.147 7.81592C39.1391 7.77185 39.1947 7.64294 39.2048 7.57382C39.2248 7.44509 39.1926 7.17868 39.2113 7.12455C39.2582 6.98613 39.2748 6.69887 39.2811 6.61603C39.3025 6.3796 39.2727 6.27849 39.3046 6.18304C39.4116 5.8678 39.4216 5.61436 39.3981 5.37976C39.3768 5.18319 39.3275 5.16418 39.3853 4.86192C39.4395 4.58947 39.6999 4.29855 39.8182 4.16707C39.896 4.08113 40.1321 4.06687 40.312 4.2329ZM90.8809 9.65415C91.0128 9.66695 91.0541 9.75179 90.9065 9.82841C90.751 9.90759 90.2846 10.4039 90.1655 10.4552C90.0491 10.5041 89.8822 10.3836 89.7802 10.3984C89.6182 10.4232 89.3196 10.4866 89.0097 10.55L88.8766 10.5771C88.7213 10.6084 88.5676 10.6383 88.4313 10.662C88.056 10.7271 87.4326 10.9475 87.2636 11.0301C87.1437 11.0897 87.1408 11.1711 87.2072 11.2307C87.4325 11.4328 87.6238 11.531 87.7316 11.6626C87.8043 11.7533 87.6929 11.7926 87.6644 11.9418C87.6281 12.1207 87.5047 12.9748 87.5632 13.437C87.613 13.8404 87.8363 15.0564 87.8942 15.3906C87.9469 15.6874 87.9891 16.0935 88.0304 16.2453C88.0868 16.4581 88.0054 16.8377 87.9219 16.9224C87.8297 17.0174 87.7217 17.1259 87.6122 17.2324L87.5392 17.303L87.4702 17.3686C87.2649 17.5622 87.0766 17.7244 87.0038 17.7487C86.8091 17.8118 86.5553 17.805 86.3726 17.662C86.1365 17.479 86.0488 17.1455 85.9789 16.9712C85.8569 16.6703 85.5094 16.4433 85.264 16.2746C84.8311 15.9776 83.8824 15.5174 83.739 15.1946C83.719 15.1493 83.6869 15.0544 83.7883 15.0218C83.9786 14.9567 84.0692 15.1811 84.1955 15.2705C84.4366 15.4367 84.6421 15.4835 84.8168 15.5369C85.0879 15.6238 85.575 15.7377 85.6914 15.7743C85.9681 15.8617 86.1123 15.9003 86.3213 15.8339C86.466 15.7885 86.7036 15.3607 86.7165 15.1778C86.7434 14.7331 86.6365 14.2085 86.6501 13.9922C86.6836 13.3659 86.6694 13.2492 86.7384 12.7742C86.7877 12.4271 86.6915 12.1647 86.7028 12.0075C86.7157 11.8137 86.7171 11.5297 86.7742 11.392C86.822 11.2748 86.6707 11.2803 86.5645 11.3101C86.058 11.4523 85.8227 11.6754 85.3853 11.8707C85.2693 11.9226 85.1184 12.0004 84.9638 12.0811L84.8476 12.1419C84.6351 12.2528 84.4304 12.3582 84.3146 12.3981C84.1606 12.4514 84.0371 12.6555 83.9472 12.5769C83.8439 12.4867 83.6997 12.5125 83.6099 12.3553C83.48 12.1241 83.6897 11.912 83.8552 11.8177C84.0763 11.6924 84.279 11.7703 84.9509 11.4571C85.6221 11.142 86.3505 10.7244 86.8962 10.5203C87.4262 10.3238 88.8721 9.91161 89.0832 9.86772C89.2943 9.82567 89.7523 9.78635 89.8258 9.75509C90.112 9.6366 90.3673 9.63989 90.4601 9.62361C90.5863 9.60057 90.7695 9.64391 90.8809 9.65415ZM40.4311 14.7549C40.3582 14.7549 40.2855 14.8578 40.2833 15.0394C40.2805 15.2211 40.3162 15.2374 40.3141 15.3839C40.312 15.5336 40.1279 15.6854 40.1265 15.8319C40.125 15.9558 40.1592 16.1083 40.1392 16.2378C40.1215 16.3599 40.0901 16.5503 40.0886 16.6534C40.0872 16.7483 40.1927 17.0072 40.2298 17.0864C40.2633 17.1658 40.3819 17.2274 40.4817 17.2356C40.5745 17.2464 40.6186 17.2472 40.6193 17.1523C40.6201 16.997 40.4867 16.8655 40.4973 16.7361C40.5102 16.5796 40.5745 16.4155 40.5758 16.3131C40.5766 16.1992 40.5316 16.1647 40.5695 16.0542C40.6064 15.9416 40.6008 15.777 40.5845 15.5973C40.5758 15.4896 40.5858 15.4305 40.5595 15.3276C40.5395 15.2414 40.5808 15.2151 40.5629 15.1114C40.5474 15.0076 40.5629 15.0076 40.5395 14.8863C40.5216 14.7995 40.4867 14.7561 40.4311 14.7549ZM55.5417 4.0559C55.8105 4.00708 56.0203 4.15427 56.17 4.22815C56.6894 4.4878 57.2536 5.39878 57.4675 5.91516C57.6802 6.43044 58.1189 7.88102 58.1959 9.06646C58.2147 9.34812 58.2223 9.79847 58.2228 10.2694L58.2228 10.4112C58.2227 10.4545 58.2226 10.4978 58.2224 10.5411L58.2217 10.6706C58.2173 11.3377 58.201 11.962 58.1846 12.1221C58.1667 12.3004 58.1516 12.5573 58.1382 12.8311L57.8565 12.8322L58.1382 12.8338C58.1363 12.8722 58.1345 12.9109 58.1327 12.9498L58.1248 13.1254C58.1042 13.5936 58.0873 14.0482 58.0654 14.1834C58.0191 14.4775 57.9833 14.9832 57.8707 15.1648C57.6631 15.5004 56.8198 16.0983 56.6387 16.2548C56.491 16.3843 55.8519 16.9129 55.7791 16.9076C55.6856 16.9014 55.5794 16.7218 55.3804 16.5368C55.0244 16.2067 54.0963 15.8955 53.7047 15.6909C53.3218 15.4888 52.0619 15.3777 51.2922 15.3323C51.1588 15.3239 51.008 15.3135 50.8559 15.3016L50.7544 15.2935L50.6536 15.285C50.2529 15.2503 49.8925 15.2076 49.8749 15.1688C49.8457 15.0984 49.7835 15.1228 49.7008 15.1207C49.6267 15.1207 49.6188 15.2089 49.5988 15.2422C49.5703 15.2957 49.6359 15.2705 49.6067 15.417C49.5767 15.5654 49.6515 15.4693 49.6681 15.5912C49.6852 15.7145 49.7408 15.6624 49.6937 15.7743C49.6459 15.8867 49.8826 15.9688 49.9277 16.0901C49.9804 16.2358 49.9783 16.4228 49.8128 16.4283C49.772 16.4301 49.7323 16.435 49.6931 16.4408L49.615 16.4528C49.5113 16.4686 49.4075 16.4793 49.2907 16.4406C49.1537 16.3945 48.6828 15.9891 48.6586 15.7362C48.638 15.5201 48.6058 15.0218 48.5874 14.8653C48.5702 14.7203 48.5323 14.4515 48.4953 14.1754L48.477 14.0374C48.4499 13.831 48.4253 13.6314 48.4124 13.4879C48.3811 13.122 48.3434 13.1999 48.419 13.0529C48.4683 12.9552 48.4003 12.9117 48.3684 12.8365L49.0602 12.8338C49.0623 13.0223 49.0723 13.1971 49.0844 13.252C49.1023 13.3301 49.1094 13.4873 49.1822 13.4784C49.2736 13.4696 49.2899 13.1869 49.379 13.2039C49.4325 13.2127 49.3977 13.3734 49.4119 13.4826C49.4354 13.6824 49.4198 13.5109 49.4704 13.8662C49.5032 14.1006 49.4604 14.4925 49.4976 14.6152C49.5332 14.7371 49.5132 14.851 49.6502 14.8518C49.7693 14.8518 49.725 14.7649 49.8178 14.6537C49.9113 14.5406 49.9169 14.5243 49.9933 14.5771C50.056 14.6212 50.5055 14.6179 50.6524 14.5941C50.8415 14.5616 50.9741 14.4118 51.104 14.3202C51.1901 14.259 51.415 14.0639 51.6508 13.8597L51.7394 13.783C51.902 13.6423 52.0621 13.5047 52.1782 13.4107C52.2902 13.3191 52.5642 13.0176 52.741 12.8338C52.7832 12.7917 52.8188 12.7559 52.8467 12.7308C52.8655 12.7133 52.8852 12.6948 52.9055 12.6757L52.9679 12.6165C53.2018 12.3937 53.4828 12.1153 53.5335 12.0598C53.5798 12.0069 53.597 11.9378 53.5435 11.8414C53.5129 11.7818 53.463 11.7703 53.3995 11.8056C53.2412 11.889 53.0378 12.1397 52.8802 12.2333C52.6034 12.3993 52.2582 12.6217 52.0683 12.7301C52.0084 12.7634 51.9415 12.7985 51.8714 12.8331L51.64 12.8331L51.8714 12.8338C51.6925 12.9219 51.497 13.0128 51.3572 13.086C51.1082 13.2194 50.8286 13.3056 50.7865 13.3238C50.6945 13.3672 50.661 13.3924 50.5767 13.3301C50.5032 13.2778 50.5269 13.307 50.5975 13.086C50.6187 13.0194 50.605 12.9488 50.6003 12.8725L50.5989 12.8338C50.5989 12.7511 50.6168 12.6637 50.6959 12.5654C50.8078 12.4279 50.9121 12.0718 51.0903 11.8645C51.0966 11.8572 51.1057 11.8465 51.117 11.8332L51.1571 11.7857C51.2789 11.6407 51.5087 11.3635 51.5641 11.2788C51.6205 11.1929 51.7331 11.1453 51.7494 11.1148C51.8066 11.0106 51.8758 10.8809 51.9086 10.8641C52.0248 10.8065 52.1418 10.6438 52.1597 10.6235C52.1968 10.5814 52.2111 10.5556 52.1889 10.4852C52.1789 10.458 52.1197 10.3611 52.0512 10.4404C51.9771 10.5258 51.8408 10.5496 51.7844 10.5849C51.6803 10.6478 51.7088 10.7665 51.6068 10.7739C51.4592 10.7855 51.4727 10.5556 51.4927 10.4777C51.5148 10.3848 51.4392 10.3625 51.4856 10.2676C51.5955 10.0486 51.562 10.0248 51.5905 9.98146C51.6182 9.93812 51.644 9.9714 51.7017 9.90557C51.7381 9.86151 51.6653 9.79988 51.7131 9.74832C51.8066 9.64336 51.8345 9.51866 51.9265 9.46307C52.0284 9.40327 52.2045 9.17891 52.2232 9.11802C52.2482 9.04342 52.2546 8.96881 52.2825 8.8922C52.2923 8.86642 52.1876 8.85288 52.1462 8.80479C52.1012 8.75195 52.1383 8.71812 52.1576 8.62176C52.1682 8.56964 52.059 8.50729 52.059 8.43744C52.0606 8.35881 52.0512 8.32425 51.9507 8.33175C51.8493 8.33907 51.6303 8.55538 51.4521 8.5872C51.2687 8.61975 51.1238 8.4965 51.2181 8.32297C51.3336 8.10867 51.6082 7.7969 51.6646 7.73729C51.7335 7.66278 51.7331 7.59195 51.7266 7.51983L51.7225 7.47636C51.7154 7.38676 51.6303 7.18892 51.6018 6.97809C51.5855 6.85612 51.4456 6.40539 51.4171 6.3498C51.3992 6.31378 51.3578 6.20608 51.4656 6.16676C51.512 6.15049 51.6026 6.2474 51.6646 6.33554C51.7602 6.46701 51.9064 6.7124 51.9515 6.7998C52.0077 6.9075 52.0606 7.02014 52.0854 7.10627C52.1033 7.16642 52.1468 7.27979 52.2388 7.29058C52.3286 7.30009 52.3844 7.29186 52.4406 7.24048C52.5355 7.15234 53.0235 6.97059 53.2325 6.90074C53.3331 6.86819 53.3895 6.85137 53.4979 6.91372C53.5592 6.94828 53.6328 7.1496 53.6699 7.16716C53.744 7.20446 53.779 7.19495 53.7598 7.24725C53.7506 7.27193 53.7541 7.26993 53.7231 7.30456L53.6999 7.33024C53.6906 7.3406 53.6795 7.35294 53.6662 7.36775C53.5735 7.47088 53.6549 7.50818 53.5627 7.64568C53.4686 7.78392 53.393 7.97372 53.3553 8.05985C53.3181 8.14524 53.2346 8.18126 53.1698 8.24215C53.0949 8.31072 53.1213 8.40562 53.0849 8.42391L53.0606 8.43479L53.0226 8.45102C52.9698 8.47335 52.9648 8.47697 52.9379 8.53435C52.8994 8.61298 52.8802 8.73494 52.9693 8.8922C53.0135 8.97083 53.0963 8.98911 53.1126 9.05146C53.1469 9.16812 53.2304 9.16538 53.2768 9.22646C53.3532 9.33141 53.3395 9.32465 53.383 9.39322C53.463 9.51646 53.4557 9.46508 53.5564 9.5342C53.6191 9.57881 53.6726 9.71925 53.7448 9.78965C53.7788 9.8224 53.8156 9.85304 53.8534 9.88296L53.9677 9.97194C54.0244 10.0168 54.0791 10.0631 54.1256 10.1157C54.212 10.2148 54.2141 10.2636 54.2054 10.3516C54.187 10.4988 54.222 10.4126 54.1648 10.5163C54.1242 10.5942 54.1641 10.6993 54.1627 10.7515C54.1619 10.8478 54.1614 10.9177 54.0957 11.0036C54.0301 11.0905 53.8446 11.3141 53.8067 11.401C53.7753 11.4721 53.7503 11.548 53.7854 11.5825C53.836 11.6321 53.876 11.6537 53.9416 11.6111C54.0263 11.555 54.2325 11.2539 54.4528 10.9547L54.5161 10.8696C54.5795 10.7849 54.6432 10.7022 54.7048 10.6275C54.8632 10.4342 55.1913 9.91911 55.2655 9.77959C55.3425 9.63788 55.5736 9.37219 55.6208 9.31459C55.6479 9.28003 55.7299 9.28058 55.747 9.34238C55.7634 9.39651 55.737 9.45557 55.7549 9.49013C55.7791 9.53895 55.8448 9.50915 55.8548 9.58832C55.8619 9.66695 55.8704 9.70151 55.8426 9.74357C55.8219 9.77684 55.8946 9.79586 55.8505 9.86626C55.8126 9.9266 55.859 10.0493 55.7549 10.1605C55.6094 10.3205 55.2519 10.7719 55.1029 10.9548C55.0174 11.0592 54.8632 11.2381 54.7062 11.4164L54.6338 11.4983C54.4413 11.7152 54.2598 11.9135 54.212 11.9526C54.1619 11.9954 54.1 12.0861 54.1263 12.1459C54.1712 12.2401 54.3411 12.5125 54.441 12.5924C54.5448 12.6744 54.7408 12.7901 54.8749 12.8339L54.8789 12.8338C54.9103 12.8446 54.9374 12.8501 54.9596 12.8508C55.0131 12.8513 55.0595 12.846 55.0987 12.8365L55.5056 12.8346L55.0993 12.8338C55.1649 12.8223 55.2128 12.798 55.2455 12.7742C55.4666 12.6122 55.6458 12.2576 55.7206 12.0841C55.7545 12.0071 55.7948 11.9039 55.8344 11.7967L55.8639 11.7159C55.9366 11.5136 56.0003 11.3164 56.0066 11.27C56.021 11.1481 55.9639 11.0159 55.9739 10.9733C55.9868 10.919 56.0674 10.9312 56.083 10.9833C56.1072 11.0532 56.1273 11.1834 56.1436 11.2708C56.1721 11.4158 55.9425 12.1567 55.8996 12.4074C55.8798 12.5301 55.8063 12.6868 55.7228 12.8353L55.7219 12.8351L55.7018 12.8709C55.582 13.0796 55.4499 13.2641 55.4303 13.3083C55.4126 13.3509 55.421 13.4215 55.3283 13.4283C55.2221 13.4378 55.1815 13.408 55.1185 13.3917C54.8811 13.3273 54.6806 13.1686 54.5293 13.0364C54.4773 12.9931 54.4038 12.9192 54.3282 12.8351L54.5848 12.8344L54.3274 12.8338C54.1691 12.665 53.9965 12.4589 53.9672 12.4121C53.9337 12.36 53.8138 12.2801 53.7575 12.3235C53.657 12.4006 53.5071 12.6155 53.4338 12.6665C53.3753 12.7063 53.2654 12.7484 53.2032 12.812C53.1961 12.8195 53.1877 12.827 53.1798 12.8353L53.1791 12.8351L53.1258 12.8905C53.051 12.9683 52.969 13.0525 52.888 13.122C52.8053 13.1924 52.453 13.4398 52.3866 13.4994C52.2852 13.5943 52.1632 13.7488 52.0904 13.7998C52.0171 13.8519 51.7681 13.9969 51.6925 14.075C51.6105 14.1609 51.4927 14.3365 51.3965 14.3758C51.333 14.4009 51.2474 14.5053 51.3114 14.5583C51.3744 14.6104 51.5868 14.5168 51.7246 14.4932C51.8345 14.4727 52 14.47 52.1175 14.4619C52.1918 14.4579 52.2596 14.3846 52.4314 14.3359C52.5784 14.2939 52.6791 14.3548 52.7431 14.3392C52.823 14.3182 52.8709 14.2884 53.0006 14.2558C53.1447 14.2173 53.3395 14.241 53.4222 14.2078C53.4815 14.1834 53.4778 14.1637 53.5893 14.0959C53.6612 14.0512 53.7575 14.0938 53.836 14.0723C53.938 14.0485 54.1213 13.9984 54.3147 13.9313C54.3726 13.9109 54.4796 13.8818 54.594 13.8532L54.6806 13.832C54.8394 13.7939 54.9924 13.761 55.0308 13.757C55.1022 13.7488 55.207 13.6018 55.3262 13.5597C55.3846 13.5389 55.4631 13.5335 55.5445 13.5309L55.6424 13.5283C55.7395 13.5254 55.8309 13.5192 55.8869 13.4879C55.9575 13.4478 56.1201 13.536 56.195 13.6661C56.2949 13.8316 56.1829 13.917 56.1557 14.0132C56.0817 14.2526 56.0116 14.3603 55.9304 14.4464C55.9062 14.4708 55.8865 14.501 55.8676 14.5324L55.8392 14.58C55.8008 14.6432 55.7576 14.7022 55.6785 14.7208C55.5201 14.7602 55.4389 14.7825 55.2655 14.7088C54.9567 14.5738 54.7912 14.7018 54.6086 14.666C54.3346 14.6104 54.2312 14.7399 54.1029 14.7296C54.0386 14.7243 53.8331 14.6918 53.7719 14.7256C53.5948 14.8232 53.453 14.7995 53.3316 14.834C53.2325 14.8618 53.1927 14.9534 53.2475 14.9975C53.3424 15.0747 53.657 15.1506 53.9145 15.1357C54.3253 15.1133 54.6286 15.1954 54.7933 15.2076C55.0394 15.2239 55.2121 15.3519 55.3319 15.3533C55.4666 15.3539 55.5222 15.4157 55.66 15.4523C55.7507 15.4753 55.8611 15.5078 55.9618 15.4996C56.0716 15.4923 56.1557 15.5702 56.1992 15.5532C56.2942 15.5196 56.335 15.5102 56.3693 15.5045L56.3946 15.5005C56.4117 15.4979 56.4302 15.4948 56.4561 15.4888C56.5296 15.4705 56.6786 15.2882 56.78 15.2219C56.9112 15.1357 57.1779 14.8958 57.2351 14.7494C57.292 14.5976 57.31 14.5318 57.3684 14.3412C57.4169 14.18 57.3427 14.1664 57.4098 13.9055C57.4697 13.6791 57.4091 13.3143 57.4562 13.1748C57.4862 13.088 57.4768 13.0446 57.5047 12.966C57.5226 12.9154 57.5239 12.8702 57.5193 12.8337L57.5189 12.8338C57.5139 12.7925 57.5018 12.7619 57.4989 12.7409C57.4912 12.6873 57.5745 12.5763 57.5745 12.5065C57.5753 12.4454 57.5039 12.3918 57.5503 12.2719C57.6109 12.1174 57.5645 11.9574 57.6103 11.9073C57.6559 11.8544 57.559 11.7676 57.5861 11.6877C57.6288 11.5703 57.6317 11.087 57.6053 10.8356C57.5745 10.5203 57.6238 10.0946 57.6359 9.93812C57.6417 9.8595 57.5282 9.79842 57.5645 9.7293C57.6167 9.63513 57.559 9.48464 57.5418 9.36396C57.5189 9.2014 57.4654 8.90116 57.4591 8.71812C57.4532 8.55752 57.3696 8.00419 57.2632 7.43924L57.2362 7.29799C57.14 6.80428 57.03 6.32601 56.9426 6.11849C56.6665 5.46168 55.9339 4.77506 55.6329 4.64908C55.3469 4.52839 54.9752 4.54613 54.7377 4.54266C54.5543 4.53991 53.9024 4.63756 53.3239 4.8131C52.8088 4.96962 52.2603 5.21172 52.0812 5.31265C51.8693 5.43187 51.6268 5.70707 51.4685 5.86231C51.2993 6.03054 51.2553 6.2304 51.2081 6.32201C51.0761 6.57197 51.2089 6.88666 51.2345 6.97333C51.2801 7.12309 51.2408 7.2275 51.176 7.25255C51.0334 7.30814 51.094 7.31234 50.8279 7.3427C50.7409 7.35422 50.5812 7.27906 50.5725 7.21945C50.5519 7.06823 50.412 6.81681 50.3422 6.65955C50.3058 6.57745 50.5298 6.29476 51.1246 5.58931C51.6532 4.96084 52.7503 4.54613 53.2011 4.39491C53.296 4.36163 53.6162 4.27349 53.724 4.25192C53.8075 4.23619 54.1398 4.22211 54.2199 4.19688C54.3759 4.14605 54.6399 4.16506 54.6871 4.14129C54.8012 4.08845 54.9238 4.06065 55.0566 4.03286C55.2092 4.00104 55.4031 4.0804 55.5417 4.0559ZM65.7152 9.65762C65.76 9.71102 65.8599 9.93136 65.9305 10.0087C65.9933 10.0791 66.0433 10.1597 66.1482 10.1943C66.2017 10.2113 66.208 10.4466 66.1988 10.5523C66.1867 10.6648 65.8984 10.7116 65.755 10.816C65.6631 10.8844 65.6096 10.9414 65.5511 11.0131C65.4762 11.1095 65.4577 11.1609 65.3555 11.247C65.2722 11.3181 65.3742 11.6932 65.3115 11.8645C65.2828 11.9418 65.3942 11.9343 65.4841 11.9378C65.5305 11.9378 65.5455 11.8557 65.6038 11.8062C65.6788 11.7473 65.8836 11.6076 65.9848 11.55C66.0583 11.5074 65.9606 11.2708 66.0697 11.247C66.1439 11.23 66.1482 11.4876 66.1946 11.588C66.2288 11.6659 66.3485 11.9581 66.3144 12.076C66.2865 12.1805 66.2665 12.2964 66.2288 12.3635C66.1924 12.4319 65.75 12.6129 65.7951 12.7925C65.7951 12.7948 65.7956 12.7967 65.7963 12.7985L65.7972 12.7985C65.8235 12.8541 65.9513 12.8237 66.0833 12.7945L66.0991 12.7943L66.1191 12.7895C66.1905 12.7722 66.2605 12.7593 66.3144 12.7634C66.4449 12.7735 66.6889 12.7519 66.8023 12.7519C66.8375 12.7519 66.8842 12.7684 66.935 12.7984L66.9364 12.7985C67.0405 12.8603 67.164 12.9755 67.2452 13.113C67.2871 13.1836 67.1004 13.3743 66.9017 13.5783L66.8419 13.6398C66.7624 13.7221 66.6844 13.8047 66.6218 13.881C66.3893 14.1657 65.4826 14.8951 65.2978 15.0679C65.2045 15.1553 65.2636 15.4773 65.1916 15.5181C65.1025 15.5715 65.024 15.5201 64.9262 15.5417C64.8514 15.558 64.7251 15.6055 64.6851 15.6874C64.648 15.7648 64.6401 15.8264 64.7107 15.8617C64.8013 15.9057 65.7595 15.4468 66.2238 15.0516C66.7074 14.6389 67.3722 14.0024 67.6147 13.7102C67.7167 13.5862 67.7409 13.2405 67.7789 12.7992L68.6812 12.7985C68.6933 12.8799 68.7383 12.9362 68.8053 12.9234C68.8638 12.9111 68.9094 12.8413 68.9615 12.7965L68.963 12.7963L68.9769 12.7843C68.9931 12.7715 69.0097 12.7631 69.0279 12.7607C69.1278 12.7444 69.4588 12.7389 69.6035 12.7769C69.6206 12.781 69.6406 12.7892 69.6657 12.7985H69.6649C69.7392 12.8257 69.8496 12.8636 70.0159 12.8325C70.0623 12.8237 70.1192 12.8115 70.1798 12.7985C70.2805 12.7789 70.3903 12.7592 70.4839 12.7607C70.5118 12.7609 70.5609 12.7611 70.624 12.7612L70.706 12.7614C70.9844 12.7619 71.4257 12.7623 71.6473 12.7647C71.7557 12.7661 72.3734 12.4772 72.5675 12.3926C72.7265 12.3234 73.1096 11.9811 73.3721 11.723C73.5218 11.5765 73.8699 11.4768 74.052 11.5567C74.1432 11.5975 74.0889 11.8577 73.9477 11.9561C73.8364 12.0327 73.5705 12.1689 73.4406 12.2549C73.2901 12.3533 73.0767 12.5837 72.9099 12.8L72.9087 12.7998L72.8717 12.8497C72.8219 12.9173 72.7771 12.9818 72.7423 13.0391C72.6666 13.1598 72.4263 13.4879 72.3027 13.696C72.2793 13.7367 72.2779 13.8377 72.3734 13.9313C72.4282 13.9842 72.7223 14.0746 73.0259 14.1635L73.1271 14.193C73.2954 14.2419 73.4587 14.2891 73.5776 14.3277C73.6082 14.3392 73.6588 14.3983 73.7323 14.3738C73.7816 14.3562 73.8514 14.3319 73.8599 14.4531C73.8636 14.5128 74.36 14.525 74.4172 14.5643C74.4885 14.6145 74.6362 14.6678 74.8055 14.7224L74.8997 14.7522L74.9477 14.7672L75.071 14.8056C75.2759 14.8695 75.4726 14.9338 75.5762 14.9953C75.664 15.0496 75.6919 15.0699 75.7738 15.1635C75.7893 15.1811 75.8115 15.1934 75.8349 15.2042L75.8702 15.2196C75.9165 15.2399 75.9564 15.2614 75.9459 15.314C75.9259 15.4082 74.5198 15.7403 74.0177 15.7172C73.5847 15.6977 73.1396 15.6455 72.7286 15.5106C72.3649 15.3912 71.6666 14.8896 71.5646 14.8891C71.3997 14.8863 71.4168 14.9216 71.3069 15.0253C71.275 15.0516 71.2186 15.1485 71.1387 15.2219C71.0452 15.3093 70.7227 15.6108 70.6557 15.6956C70.5622 15.8169 70.3426 15.8637 70.2041 15.9694C70.1029 16.0454 69.906 16.2528 69.7869 16.3294C69.5658 16.4709 69.2891 16.6459 69.1234 16.713C68.9552 16.7822 68.659 16.679 68.4087 16.6447C68.1348 16.6066 67.801 16.3327 67.674 16.0955C67.6005 15.9558 67.6026 15.6055 67.5649 15.3987C67.5385 15.2592 67.6555 14.8293 67.5641 14.7717C67.4604 14.7068 67.3967 14.7549 67.3427 14.8099L67.3184 14.8354C67.3145 14.8396 67.3105 14.8437 67.3066 14.8477C67.2046 14.95 67.0834 15.1485 66.7595 15.3628C66.6162 15.457 66.6154 15.5228 66.4534 15.6726C66.3321 15.7843 66.0497 15.9443 65.8507 16.101C65.6588 16.2548 65.3065 16.3484 65.0788 16.387C64.9961 16.4018 64.7671 16.5355 64.6359 16.5924C64.5175 16.6412 64.1359 16.7679 63.9011 16.8357C63.7536 16.8771 63.6843 16.5721 63.6508 16.3632C63.6173 16.1531 63.7022 15.9348 63.8319 15.8692C64.0466 15.7553 64.3863 15.3797 64.5718 15.1893C64.6195 15.1405 64.5246 15.0273 64.4369 15.0306C64.1344 15.0456 63.9433 14.9216 63.9433 14.9216C64.1629 14.8891 64.5381 14.8768 64.6701 14.7203C64.6922 14.6971 64.7536 14.643 64.7536 14.5738C64.7565 14.4714 64.7207 14.4464 64.7107 14.3806C64.7022 14.3319 64.7736 14.2463 64.7494 14.199C64.7228 14.1481 64.6716 14.0227 64.5795 14.0756C64.3863 14.1834 64.0545 14.4972 63.966 14.6605C63.9172 14.7495 63.9023 14.8449 63.899 14.8703L63.8983 14.8768C63.8434 14.9282 63.742 14.8836 63.742 14.8836C63.5659 15.0558 63.2877 15.3486 63.1485 15.4605C63.0473 15.5437 62.9045 15.6048 62.792 15.5526C62.6557 15.4888 62.5643 15.2184 62.5029 15.1303C62.4494 15.0516 62.5237 14.9384 62.6072 14.8891C62.7327 14.8125 63.0594 14.6504 63.1514 14.5718C63.2534 14.4877 63.6893 14.0743 63.7913 13.9969C63.9533 13.873 64.18 13.7327 64.3099 13.6018C64.4013 13.5069 64.287 13.3917 64.2192 13.4445C64.1629 13.4879 64.0816 13.4696 64.0466 13.391C63.9881 13.2615 63.8877 13.0073 63.8255 12.7965L63.8257 12.7963L63.8147 12.7573C63.789 12.6626 63.7723 12.58 63.7741 12.5253C63.7757 12.4121 63.7763 12.3505 63.8226 12.2476C63.9646 11.9371 64.4326 11.3534 64.5795 11.247C64.7157 11.1448 64.6337 11.0457 64.5902 10.9685C64.5375 10.8716 64.2671 10.5556 64.2764 10.4417C64.292 10.2744 64.556 10.1246 64.8142 9.95312L64.9051 9.89161C65.1317 9.73795 65.3529 9.59068 65.5147 9.5768C65.6973 9.56126 65.7037 9.64537 65.7152 9.65762ZM84.157 4.03012C84.2678 4.04827 84.4381 4.35573 84.5932 4.66269L84.637 4.75014C84.7092 4.89501 84.7763 5.03352 84.8303 5.13437C84.8896 5.2428 84.9267 5.41633 84.9609 5.69354C84.9773 5.82373 85.1035 6.06985 85.0722 6.36461C85.0543 6.51309 85.1007 6.77877 85.0443 6.90494C85.0073 6.99162 84.8603 7.07628 84.8595 7.1997C84.8582 7.27029 84.737 7.43229 84.6634 7.50068C84.5472 7.60783 84.4737 7.89254 84.4002 7.98524C84.2605 8.15749 83.9074 8.15146 83.6563 8.21985C83.4708 8.27068 83.2489 8.38259 83.0557 8.51003C82.8615 8.63803 82.5134 8.75268 82.2717 8.90847C82.0875 9.02916 81.7081 9.39048 81.5968 9.47587C81.5191 9.53548 81.3884 9.6344 81.5104 9.73607C81.6382 9.84194 81.9963 9.78635 82.4786 9.9917C82.7959 10.1266 83.0784 10.3122 83.2389 10.5659C83.3751 10.7767 83.3081 10.9597 83.1605 11.0444C83.0412 11.1122 82.9608 11.3156 82.7053 11.5174C82.5769 11.6206 82.4836 11.8828 82.2767 12.0523C82.2376 12.0842 82.1731 12.1438 82.0947 12.2179L81.9827 12.3244C81.7558 12.5408 81.4726 12.8127 81.3328 12.9124C81.2124 12.9978 81.2158 13.1408 81.4113 13.2079C81.594 13.2717 82.1597 13.6513 82.345 13.9075C82.5434 14.18 82.6312 14.7656 82.6683 15.2422C82.691 15.5567 82.4649 16.0339 82.3693 16.3632C82.3208 16.528 82.2865 16.5978 82.0648 16.5598C82.0056 16.5503 81.9065 16.4228 81.8108 16.3301C81.6754 16.1985 81.4856 16.1451 81.3929 16.046C81.2843 15.9315 81.1339 15.8672 81.0582 15.7553C80.9691 15.6238 80.9784 15.0218 81.0247 14.7541C81.064 14.5285 81.1025 14.3678 81.161 14.1975C81.2081 14.0587 81.3022 13.6038 81.1231 13.5707C81.0211 13.553 80.6437 13.7482 80.4419 13.8417C80.2165 13.9455 79.9619 14.0885 79.8513 14.2085C79.7258 14.344 79.6544 14.5285 79.6336 14.6675C79.6138 14.8042 79.5124 14.8999 79.4489 14.866C79.3121 14.7955 79.178 14.8558 79.081 14.8796C78.944 14.9127 78.8533 14.7934 78.6992 14.7344L78.6653 14.7221L78.6102 14.7031C78.4601 14.6528 78.5243 14.6881 78.3247 14.5318C78.1821 14.4166 77.859 13.9658 77.9808 13.6479C78.0459 13.4751 77.9832 13.3957 78.1692 13.2317C78.6193 12.8345 78.7956 12.6129 79.2542 12.1384C79.4953 11.8903 79.9034 11.4843 80.1538 11.2878C80.2558 11.2084 80.3485 11.0654 80.4242 10.8994C80.4711 10.795 80.7351 10.6065 80.5681 10.5008C80.3857 10.3848 80.1496 10.3733 80.0175 10.4241C79.8884 10.4742 79.8063 10.334 79.6544 10.2546C79.5182 10.1835 79.3662 10.2804 79.2607 10.2073C79.1345 10.1177 79.071 10.0561 78.9524 9.97616C78.8426 9.90283 78.6372 9.79641 78.7379 9.59984C78.812 9.4521 78.7492 9.24273 78.9182 9.12278C79.1301 8.96955 79.2778 8.81503 79.4276 8.69435C79.7137 8.46176 80.5033 7.59284 81.0332 7.01466C81.5918 6.40813 82.6154 4.96084 83.0156 4.57374C83.0984 4.4931 83.0628 4.30275 83.4887 4.09192C83.7461 3.96447 83.9493 3.99629 84.157 4.03012ZM68.6077 13.452C68.4658 13.7638 68.4579 14.1264 68.4395 14.3643C68.4173 14.6159 68.4372 15.1398 68.4801 15.4184C68.5072 15.5967 68.6077 15.7262 68.7033 15.8116C68.8118 15.9098 69.1499 15.9871 69.3268 15.8447C69.4659 15.7342 70.5087 15.2103 70.8212 15.0103C70.9417 14.9324 70.9796 14.8477 71.0444 14.7772C71.1 14.7168 71.1243 14.6254 71.0552 14.5596C70.8747 14.3846 70.6671 14.344 70.5095 14.2396C70.2834 14.0885 69.9632 13.9225 69.6641 13.8479C69.4451 13.7923 69.2461 13.7144 69.0699 13.6749C68.9067 13.6384 68.6506 13.3544 68.6077 13.452ZM66.2901 13.1368L66.2744 13.1375C66.1189 13.1531 65.9556 13.2249 65.7772 13.3056C65.594 13.391 65.263 13.5347 65.2615 13.5957C65.2607 13.7292 65.2301 13.9441 65.2372 14.0823C65.2436 14.205 65.345 14.401 65.3992 14.346C65.5048 14.2365 65.6942 14.0558 65.8811 13.8728L65.9608 13.7944C66.1846 13.5732 66.3864 13.363 66.4114 13.2873C66.4368 13.2068 66.3737 13.1471 66.3058 13.138L66.2901 13.1368ZM72.1565 13.0046C72.0263 13.1028 71.7242 13.2666 71.5826 13.2696L71.5426 13.2673C71.4302 13.2694 71.3311 13.472 71.4532 13.5367C71.5538 13.5915 71.7029 13.6546 71.8092 13.6892C71.8634 13.7075 71.9383 13.6608 71.9668 13.5957C71.9864 13.5475 72.0378 13.4752 72.095 13.4004L72.1532 13.3255C72.2113 13.2513 72.2665 13.1817 72.2927 13.1381C72.3485 13.0433 72.2571 12.9322 72.1565 13.0046ZM62.3419 12.7985C62.262 13.0704 62.3132 13.2953 62.2328 13.4039C62.1485 13.5164 61.9843 13.5056 61.8839 13.4343C61.7848 13.3646 61.6264 13.2216 61.5871 13.0744C61.5693 13.0108 61.5779 12.9064 61.5956 12.7985H62.3419ZM49.5311 7.06695C49.5938 7.10407 49.6196 7.28656 49.6196 7.35568C49.6173 7.45734 49.5466 7.89784 49.5005 7.98945C49.4441 8.10264 49.3835 8.51058 49.3748 8.57166C49.3556 8.68082 49.3527 8.80626 49.3421 8.88488C49.3321 8.96205 49.2765 9.06646 49.2472 9.15331C49.2236 9.22444 49.2657 9.36872 49.2436 9.44058C49.2143 9.53694 49.2236 9.5971 49.1766 9.67518C49.1323 9.75033 49.203 9.82292 49.1751 9.884C49.1387 9.95915 49.208 10.033 49.1529 10.1191C49.0952 10.2078 49.1914 10.2283 49.1587 10.3448C49.1202 10.4845 49.1266 10.5969 49.0894 10.6661C49.0531 10.7352 49.1587 10.8268 49.1231 10.9548C49.0752 11.1278 49.1087 12.1146 49.0794 12.3119C49.0662 12.3911 49.0607 12.5377 49.0598 12.6928V12.7864C49.0599 12.802 49.06 12.8176 49.0602 12.8331L48.369 12.8338C48.3526 12.7985 48.3463 12.7524 48.369 12.6868C48.4153 12.5471 48.3547 12.2787 48.4396 12.1038C48.4781 12.0258 48.3782 12.0265 48.3869 11.9466C48.3976 11.8422 48.4074 11.7723 48.4367 11.6687C48.4588 11.5886 48.4482 11.4944 48.4411 11.3474C48.4325 11.1996 48.434 11.1378 48.4989 11.0336C48.5395 10.9691 48.4638 10.9372 48.476 10.807C48.4825 10.7326 48.5774 10.0506 48.6166 9.79038C48.6557 9.52999 48.7165 8.83807 48.7671 8.74793C48.8484 8.60311 48.9097 8.35244 48.9579 8.12835L48.983 8.00955C49.0068 7.89498 49.0272 7.79548 49.0452 7.73254C49.1081 7.52098 49.3013 7.33118 49.3456 7.16917C49.3656 7.10078 49.4847 7.04117 49.5311 7.06695ZM66.5677 4.77579C66.6481 4.81108 66.6839 4.88167 66.7651 4.88221C66.8771 4.88368 66.8829 5.04825 66.9456 5.10182C67.0007 5.14516 67.0726 5.31137 67.1354 5.3655C67.2075 5.42785 67.2339 5.50721 67.3059 5.55877C67.3851 5.61564 67.4078 5.81221 67.3124 5.92466C67.2368 6.01152 67.1182 6.12873 66.9606 6.17353C66.8136 6.21558 66.4897 6.22509 66.3079 6.33078C66.1582 6.41691 65.8857 6.62225 65.7329 6.77749C65.4456 7.06896 65.1189 7.57931 64.8585 8.01176C64.6793 8.30451 64.0153 9.38572 63.8171 9.80939C63.7349 9.98694 63.3111 10.8471 63.1607 11.1603C62.9609 11.5663 62.4781 12.4536 62.3796 12.6921C62.3646 12.7281 62.3525 12.7627 62.3419 12.7972L61.5956 12.7985C61.6149 12.6833 61.6449 12.5641 61.667 12.4834C61.6963 12.3798 61.7532 12.3085 61.8446 12.2686C61.901 12.2428 61.993 12.2671 62.0736 12.236C62.135 12.2115 62.3996 11.7954 62.5316 11.5622C62.607 11.4286 62.7362 11.1787 62.8672 10.9207L62.9276 10.8014C63.078 10.5038 63.2199 10.2174 63.2734 10.1084C63.3126 10.0286 63.4225 9.7951 63.5465 9.5458L63.5908 9.45739L63.6381 9.36413C63.6936 9.25597 63.749 9.15114 63.7999 9.06097C63.8601 8.95365 64.0378 8.51504 64.2368 8.05407L64.2814 7.95139L64.3358 7.82741C64.5088 7.43625 64.6859 7.06545 64.8079 6.90494C64.8467 6.85403 64.9682 6.62007 65.1001 6.37893L65.147 6.2938C65.2255 6.15239 65.3048 6.01564 65.37 5.91936C65.4415 5.81274 65.6055 5.5673 65.779 5.31842L65.8405 5.23065C66.0561 4.92452 66.2713 4.63744 66.3293 4.62457C66.4028 4.60775 66.4528 4.72642 66.5677 4.77579ZM72.4297 5.24427C72.4748 5.358 72.4854 5.52421 72.4234 5.73084C72.387 5.86176 72.2843 6.0448 72.1609 6.31999C72.1309 6.38538 72.0652 6.61047 71.9943 6.8452L71.9658 6.93926C71.9276 7.0644 71.889 7.1866 71.8548 7.28308C71.7472 7.58534 71.6208 8.30323 71.5459 8.42793C71.4339 8.61847 71.5651 8.66583 71.4853 8.8719C71.47 8.91336 71.4097 9.04694 71.3439 9.18537L71.3076 9.26084C71.2773 9.32326 71.2474 9.3834 71.2215 9.43308C71.1279 9.61612 70.8555 10.189 70.7991 10.2391C70.7292 10.3055 70.7791 10.4439 70.8141 10.5008C70.8597 10.5706 71.1116 10.7184 71.2834 11.1162C71.3369 11.2382 71.319 11.3649 71.2142 11.4971C71.1387 11.592 70.8397 11.6822 70.6715 11.7608C70.6484 11.7714 70.6182 11.7854 70.5823 11.8024L70.5034 11.8399C70.1608 12.0038 69.5133 12.3277 69.269 12.52C69.2027 12.5716 69.0949 12.5573 69.1234 12.4644C69.1705 12.301 69.1128 11.7954 69.1776 11.6226C69.2775 11.3649 69.2369 11.4666 69.4601 11.1726C69.5779 11.0159 69.8254 10.4459 70.095 10.1612C70.1221 10.1334 70.1771 9.98896 70.0886 9.93538C70.0166 9.89076 69.9252 9.98146 69.8333 10.01C69.7776 10.0277 69.7669 10.1577 69.702 10.1835C69.6035 10.2221 69.5094 10.1246 69.4174 10.197C69.3531 10.2486 69.2333 10.4973 69.2105 10.6648C69.2005 10.7339 69.0749 10.8268 69.0429 10.8716C69.005 10.9244 69.03 11.1501 69.0093 11.3081C68.985 11.4971 68.796 11.9811 68.7504 12.183C68.7218 12.3132 68.6656 12.6041 68.679 12.7735C68.6804 12.7804 68.6804 12.7884 68.6812 12.7959L67.7789 12.7985C67.8094 12.4427 67.8479 12.0232 67.9436 11.6076C67.9983 11.3704 68.0896 10.839 68.1865 10.302L68.2158 10.141C68.2842 9.76628 68.354 9.40292 68.4145 9.14984C68.5921 8.40489 69.204 7.25054 69.3204 7.07902C69.3674 7.01063 69.3175 6.94206 69.3589 6.87916C69.4074 6.81059 69.4238 6.75848 69.59 6.83034C69.657 6.85941 69.7611 6.9801 69.8246 6.95431C69.956 6.90323 69.7881 6.99445 70.1437 6.65334L70.2026 6.59737C70.2237 6.57753 70.2463 6.55647 70.2705 6.53412C70.7883 6.05211 71.2877 5.81294 71.5646 5.61637C71.8421 5.41981 72.0289 5.19599 72.1659 5.13638C72.2814 5.08756 72.3884 5.13437 72.4297 5.24427ZM64.7108 12.1452L64.6943 12.1459C64.6187 12.1527 64.673 12.2115 64.5916 12.2651C64.5011 12.3247 64.4482 12.3918 64.5067 12.4644C64.5439 12.5078 64.7001 12.4664 64.7544 12.3885C64.8279 12.286 64.8039 12.1644 64.726 12.1472L64.7108 12.1452ZM38.6861 9.77282C38.4929 9.89808 38.5207 9.86425 38.3096 10.0358C38.2347 10.0961 38.0457 10.2161 37.9693 10.2744C37.8595 10.3598 37.6176 10.4763 37.5941 10.5293C37.5285 10.6756 37.5264 10.8045 37.6426 10.9352C37.7596 11.0674 37.7303 11.142 37.8294 11.2931C37.9095 11.4145 37.953 11.588 38.1327 11.7107C38.3132 11.8347 38.2389 12.0238 38.348 11.9899C38.4579 11.9566 38.8068 11.6924 38.8716 11.573C38.9099 11.503 38.9079 11.4384 38.9013 11.3827L38.8953 11.3374C38.8926 11.3159 38.8909 11.2963 38.893 11.2788C38.9101 11.1671 38.9323 11.1501 38.923 11.0897C38.9151 11.0288 38.8717 10.9765 38.8803 10.8809C38.8909 10.7697 38.9273 10.7339 38.9201 10.5962C38.9138 10.4574 38.9402 10.0696 38.9217 9.85273C38.9059 9.67116 38.7768 9.71248 38.6861 9.77282ZM52.8195 10.3252C52.8077 10.3326 52.7911 10.347 52.7709 10.3658L52.7101 10.4234C52.6374 10.492 52.5427 10.5764 52.4485 10.6167C52.2923 10.6858 52.2267 10.7975 52.171 10.8932C52.1154 10.9881 52.1605 11.0131 52.0106 11.1698C51.8637 11.3249 51.8735 11.2287 51.781 11.2971C51.6875 11.3657 51.8714 11.3765 51.7887 11.445C51.7046 11.5141 51.7238 11.445 51.6126 11.5737C51.5012 11.7032 51.4906 11.7465 51.6553 11.8096C51.8195 11.8713 51.7908 11.9161 51.9842 11.7879C52.0572 11.7393 52.1157 11.7165 52.1715 11.6974L52.2269 11.6788C52.3008 11.6533 52.3769 11.6215 52.4836 11.531C52.6962 11.3507 52.9065 11.3717 53.0649 11.1996C53.2225 11.0274 53.2396 11.1142 53.1782 10.9312C53.1163 10.7467 53.1149 10.7827 53.0449 10.6167C52.9729 10.4499 52.8738 10.2907 52.8195 10.3252ZM70.6399 10.5509C70.5851 10.6119 70.5174 10.7074 70.4375 10.7217C70.3076 10.7474 70.3205 10.4953 70.1821 10.5896C70.0678 10.6661 70.013 10.7672 69.993 10.9252C69.9824 11.0131 69.7463 11.1148 69.789 11.3081C69.8219 11.4578 69.8462 11.426 69.9239 11.3967C70.0351 11.3534 70.6692 11.1353 70.7812 11.0051C70.8533 10.921 70.8291 10.805 70.8048 10.6831C70.7564 10.4607 70.6863 10.4995 70.6399 10.5509ZM53.2831 9.89607C53.2546 9.94836 53.1447 9.91161 53.1149 10.0683C53.0863 10.2241 53.0949 10.2241 53.214 10.321C53.331 10.4194 53.2269 10.5821 53.346 10.6973C53.4623 10.8125 53.3624 10.8546 53.4823 10.7597C53.6027 10.6661 53.6285 10.6913 53.6491 10.5618C53.6699 10.4322 53.6684 10.492 53.5877 10.3773C53.5071 10.2636 53.5885 10.2215 53.4536 10.0811C53.3181 9.94013 53.3118 9.84322 53.2831 9.89607ZM43.3934 7.24377C43.2759 7.23573 43.094 7.20446 42.8914 7.30612C42.7522 7.37671 42.6252 7.5197 42.4611 7.62063C42.2829 7.73108 41.9206 7.94264 41.9277 8.03754C41.9404 8.17651 41.9069 8.33175 41.8948 8.48827C41.8792 8.70313 41.9619 8.98856 41.9783 9.06719C41.9946 9.14033 42.0402 9.18915 42.0033 9.2665C41.9725 9.33013 41.9917 9.4393 42.0083 9.56931C42.0268 9.7165 42.086 9.82018 42.1609 9.77739C42.2244 9.74155 42.8677 9.0394 43.1281 8.7439C43.3771 8.46176 43.9014 7.68097 43.9257 7.58534C43.9563 7.46612 43.9827 7.37927 43.8928 7.27504C43.7958 7.16039 43.5747 7.25401 43.3934 7.24377ZM89.7931 7.30814C89.9057 7.31435 89.9122 7.38749 89.8008 7.44784C89.6761 7.51494 89.6424 7.68097 89.5404 7.77514C89.4748 7.83622 89.502 8.02803 89.445 8.09642C89.3771 8.18053 89.278 8.22533 89.1589 8.22387C88.9749 8.22131 88.957 8.22131 88.84 8.21985C88.7038 8.21857 88.4313 8.38332 88.3322 8.40562C88.2958 8.41294 88.2023 8.33852 88.1145 8.31548C87.9034 8.26044 87.1073 8.56215 86.8006 8.69234C86.4775 8.82783 85.9054 9.09553 85.6193 9.38371C85.5073 9.49562 85.3939 9.70297 85.2126 9.60533C85.0479 9.51719 84.9794 9.15862 84.9367 9.00063C84.8982 8.86587 84.9167 8.45975 85.1928 8.32553C85.3853 8.23136 85.4382 8.45097 85.503 8.4517C85.6943 8.45298 85.8669 8.47401 86.1065 8.39685C86.2068 8.36532 86.5919 8.18943 86.987 8.01999L87.1056 7.9695C87.4013 7.84452 87.6871 7.73165 87.847 7.69451C88.0369 7.65084 88.2478 7.59953 88.4603 7.54879L88.602 7.51513C89.0973 7.39827 89.5773 7.29446 89.7931 7.30814ZM71.8078 5.95118C71.8078 5.95118 71.8056 5.95247 71.8014 5.95496L71.7829 5.96596C71.6254 6.05965 70.7679 6.57556 70.5329 6.84058C70.272 7.13461 69.9366 7.53049 69.9324 7.82671C69.9316 7.98268 69.8546 8.22533 69.8075 8.34729C69.779 8.42391 69.6406 8.60622 69.647 8.75469C69.6535 8.9295 69.6528 9.00959 69.6685 9.09498C69.6941 9.22572 69.8333 9.26101 69.8981 9.19244C70.0193 9.06317 70.4702 8.80004 70.6842 8.60219C70.7162 8.57242 70.7437 8.54663 70.7674 8.52427L70.8099 8.48398C70.9139 8.38464 70.9137 8.37887 70.9109 8.37582L70.9098 8.37428C70.9092 8.37193 70.9124 8.36632 70.9353 8.34327C71.0088 8.26666 71.1379 8.35132 71.2015 8.16353C71.3448 7.73784 71.3833 7.58205 71.5453 7.11431C71.7064 6.64584 71.8421 6.09819 71.8078 5.95118ZM67.1069 6.84387C67.2887 6.87916 67.5071 7.21945 67.577 7.38146C67.6205 7.48514 67.6975 7.70749 67.6611 7.79142C67.6155 7.90406 67.4257 7.90406 67.2389 7.95215C67.1733 7.96842 67.0028 8.02803 66.8792 8.08636C66.7245 8.16353 66.5327 8.32297 66.4649 8.38661C66.3893 8.45499 66.2665 8.48626 66.2067 8.47072C66.1711 8.46176 66.1724 8.36156 66.2359 8.29774C66.3572 8.17651 66.5076 7.83896 66.4728 7.70749C66.4563 7.64038 66.3828 7.61112 66.3772 7.40249C66.3735 7.29735 66.3358 7.07573 66.3914 6.9673C66.457 6.83637 66.9058 6.80785 67.1069 6.84387ZM54.9931 6.73068C55.3346 6.91774 55.5744 6.98412 55.6479 7.08579C55.7106 7.17392 55.7584 7.34215 55.7349 7.47088C55.7143 7.57529 55.7043 7.7746 55.5636 7.88504C55.4424 7.98323 55.3754 8.07137 55.3148 8.12696C55.2584 8.17925 55.2798 8.33504 55.182 8.3696C55.0629 8.41239 54.973 8.3323 54.8268 8.33102C54.6692 8.32901 54.5501 8.4144 54.5045 8.37033C54.4723 8.33852 54.4365 8.28421 54.378 8.24691C54.3247 8.2118 54.2441 8.2374 54.2333 8.1745C54.2154 8.07886 54.0884 7.82397 53.9922 7.72907C53.9545 7.69377 54.0478 7.51019 53.9959 7.45058C53.9408 7.38877 53.9501 7.29186 53.943 7.23152C53.9337 7.16862 53.9358 7.11504 53.9358 7.04922C53.9374 6.98887 53.8517 6.89123 53.8931 6.81333C53.9224 6.76122 53.9637 6.64255 54.0228 6.61475C54.08 6.58897 54.1977 6.59044 54.3269 6.60927C54.4002 6.62024 54.2705 6.59044 54.5915 6.57818C54.7577 6.57069 54.8468 6.65005 54.9931 6.73068ZM52.8915 7.49794C52.7075 7.5901 52.507 7.54548 52.5405 7.71078C52.5748 7.87626 52.5207 7.80641 52.5848 7.90333C52.6475 7.99951 52.6277 8.09441 52.7574 8.00901C52.8859 7.92362 52.8859 7.95891 52.9344 7.7671C52.9829 7.57803 53.0899 7.7095 53.0378 7.56779C52.9843 7.42882 53.0762 7.40377 52.8915 7.49794Z" fill="#1B1A19"/>
</svg>
