<svg width="81" height="30" viewBox="0 0 81 30" fill="none" xmlns="http://www.w3.org/2000/svg">
<path fill-rule="evenodd" clip-rule="evenodd" d="M59.6304 11.5859H60.4437L64.0013 19.947H63.118L62.1981 17.7265H57.7206L56.7642 19.947H55.9387L59.6304 11.5859ZM60.0019 12.4358L58.0312 17.0199H61.9117L60.0019 12.4358ZM51.9545 11.586H49.5177V19.9501H52.2164C53.3617 19.9501 55.0461 19.5359 55.0461 17.6109C55.0461 16.4412 54.2724 15.6371 53.1606 15.5549V15.5305C54.1628 15.3295 54.6775 14.6441 54.6775 13.7943C54.6775 11.9058 53.2429 11.586 51.9545 11.586ZM51.9424 15.1984H50.3068V12.2956H52.049C53.0542 12.2956 53.8888 12.6246 53.8888 13.7942C53.8888 14.312 53.5781 15.1984 51.9424 15.1984ZM50.3098 19.2405H52.11C53.9619 19.2405 54.2604 18.2262 54.2604 17.6353C54.2604 16.3956 53.2339 15.9113 52.2318 15.9113H50.3098V19.2405ZM65.2196 11.5859H66.2339L71.3815 18.9084H71.4059V11.5859H72.1948V19.947H71.1805L66.0328 12.6246H66.0085V19.947H65.2196V11.5859ZM75.2986 11.5859H74.5158V19.947H75.3047V15.6249H75.3778L79.6634 19.947H80.7965L76.2824 15.4116L80.5559 11.5859H79.4685L75.3717 15.2715H75.2986V11.5859Z" fill="#76111C"/>
<path fill-rule="evenodd" clip-rule="evenodd" d="M21.2424 13.0722C21.9338 13.0722 22.4699 13.322 22.8415 13.7575L24.2731 12.6001C23.5573 11.6924 22.3633 11.3726 21.419 11.3726C18.7782 11.3726 16.8562 13.0844 16.8562 15.7648C16.8562 18.4452 18.7812 20.157 21.419 20.157C22.5795 20.157 23.7735 19.6971 24.4771 18.7041L22.9237 17.5589C22.543 18.1254 21.9338 18.4574 21.1814 18.4574C19.8321 18.4574 18.7934 17.3243 18.7934 15.7648C18.7934 14.2053 19.8321 13.0722 21.2424 13.0722ZM27.3313 11.5858H25.4672V19.9469H27.3313V11.5858ZM29.0279 11.5858H31.8454L33.7917 17.041H33.8161L35.7746 11.5858H38.5799V19.9469H36.7158V13.5321H36.6915L34.471 19.9469H33.0516L30.9133 13.5321H30.8889V19.9469H29.0248V11.5858H29.0279ZM43.4504 11.5858H40.2978V19.9499H43.761C45.2657 19.9499 46.938 19.3712 46.938 17.6228C46.938 16.5354 46.1978 15.7221 45.086 15.579V15.5546C45.9572 15.2835 46.542 14.6439 46.542 13.7118C46.542 11.8934 44.9307 11.5858 43.4504 11.5858ZM43.5113 14.9271H42.162H42.159V13.1422H43.4261C44.0109 13.1422 44.681 13.3189 44.681 14.0164C44.681 14.6896 44.084 14.9271 43.5113 14.9271ZM42.162 18.3873H43.8342C44.4191 18.3873 45.077 18.1406 45.077 17.4065C45.077 16.6146 44.1815 16.4867 43.5723 16.4867H42.162V18.3873Z" fill="#76111C"/>
<path d="M0.29541 9.29541H13.7371V21.7046H0.29541V9.29541Z" fill="#76111C"/>
<path fill-rule="evenodd" clip-rule="evenodd" d="M0 9H14.0326V22H0V9ZM0.590851 9.59085V21.4091H13.4417V9.59085H0.590851Z" fill="#492B2B"/>
<path fill-rule="evenodd" clip-rule="evenodd" d="M1.98889 11.458H9.19253L12.7928 15.4786L9.19253 19.8739H1.98889L5.21454 15.4786L1.98889 11.458Z" fill="#EC2428"/>
<path fill-rule="evenodd" clip-rule="evenodd" d="M1.68103 11.3105H9.25856L12.9873 15.4746L9.2625 20.0219H1.69728L5.0284 15.4829L1.68103 11.3105ZM2.29679 11.606L5.40072 15.4749L2.28054 19.7265H9.1226L12.5984 15.4832L9.12654 11.606H2.29679Z" fill="#492B2B"/>
<path fill-rule="evenodd" clip-rule="evenodd" d="M12.7928 15.4786L9.19253 11.458H1.98889L5.21454 15.4786" fill="white"/>
<path fill-rule="evenodd" clip-rule="evenodd" d="M1.68103 11.3105H9.25856L12.9029 15.3804L12.6828 15.5774L9.12654 11.606H2.29679L5.32978 15.3865L5.09934 15.5713L1.68103 11.3105Z" fill="#492B2B"/>
</svg>
