<svg width="61" height="30" viewBox="0 0 61 30" fill="none" xmlns="http://www.w3.org/2000/svg">
<g clip-path="url(#clip0)">
<path fill-rule="evenodd" clip-rule="evenodd" d="M55.5825 18.6019V9.21973C55.289 9.34538 54.5345 9.80612 54.4926 9.88989V22.7904H55.6244V19.9841L57.4688 17.3873C57.4688 17.3873 59.9419 22.6648 60.0257 22.7904H61.2413C61.0737 22.4554 58.1814 16.4239 58.1814 16.4239C58.1814 16.4239 60.403 13.4082 60.6545 13.0313H59.3969C59.0197 13.5758 56.2112 17.6386 56.2112 17.6386L55.5825 18.6019ZM48.708 12.7799C47.6181 12.7799 46.696 13.2826 46.1091 14.1621L45.8576 14.4972V12.9894H44.7258V22.7904H45.8576V17.0522C45.8576 14.9998 46.8217 13.7852 48.4146 13.7852C50.0913 13.7852 50.8458 14.8323 50.8458 17.0522V22.7904H52.0195V16.759C52.0195 14.1621 50.8877 12.7799 48.708 12.7799ZM42.3784 15.8794C42.3784 13.7852 41.2886 12.7799 39.067 12.7799C37.9352 12.7799 36.8034 13.0731 36.007 13.5339C36.0489 13.6176 36.1327 13.8061 36.2166 13.9946C36.3004 14.1831 36.3842 14.3716 36.4262 14.4553C37.2645 13.9946 38.1029 13.7433 39.025 13.7433C40.5341 13.7433 41.2886 14.5391 41.2886 16.0889V17.4711L41.079 17.3454C40.4502 17.0103 39.57 16.8009 38.6897 16.8009C36.9292 16.8009 35.0429 17.6386 35.0429 19.9004C35.0429 22.7067 37.1388 22.9999 38.0609 22.9999C39.2346 22.9999 40.1987 22.5391 41.0371 21.6177L41.2467 21.3664V22.7904H42.3784V15.8794ZM38.2705 22.0784C36.8873 22.0784 36.1327 21.2826 36.1327 19.8166C36.1327 18.5182 37.0549 17.7224 38.564 17.7224C39.6957 17.7224 40.4083 17.8899 41.1628 18.3088L41.2467 18.3506V20.4868L41.2048 20.5287C40.4922 21.5339 39.4442 22.0784 38.2705 22.0784ZM27.2462 14.4135V9.21973C26.9947 9.34538 26.1983 9.80612 26.1145 9.88989V22.7904H27.2462V21.4501L27.4558 21.7014C28.2103 22.581 29.0906 22.9999 30.1385 22.9999C32.2763 22.9999 33.7015 20.9056 33.7015 17.7224C33.7015 14.581 32.444 12.7799 30.3062 12.7799C29.2583 12.7799 28.2942 13.2407 27.4558 14.1621L27.2462 14.4135ZM27.2462 20.403L27.2881 15.293C28.0427 14.2878 28.9648 13.7852 29.9709 13.7433C31.6057 13.7433 32.5697 15.2093 32.5697 17.7224C32.5697 20.5705 31.7314 21.9946 30.0128 21.9946C28.9229 21.9946 27.875 21.4082 27.2462 20.4449V20.403ZM18.276 21.1569C18.6952 21.1569 19.1982 20.9894 19.7431 20.6543L19.8689 20.5287L19.3659 22.4135C19.0305 22.6229 18.4856 22.8742 17.5634 22.8742C16.2221 22.8742 15.3418 21.8271 15.3418 20.3192V14.7904H13.6232V12.9475H15.3418V10.937L17.3119 9.93178V12.9894H19.3659V14.8323H17.3119V20.0679C17.3119 20.8219 17.6053 21.1569 18.276 21.1569ZM7.54515 19.9004L7.50323 19.9423C6.79064 20.6543 5.95229 21.0313 5.11394 21.0313C3.35341 21.0313 2.05396 19.691 2.05396 17.848C2.05396 16.0051 3.35341 14.6648 5.11394 14.6648C5.95229 14.6648 6.79064 15.0417 7.50323 15.7957L7.54515 15.8375L8.67693 14.4553H8.63501C7.67091 13.3244 6.53914 12.7799 5.15586 12.7799C3.77258 12.7799 2.47314 13.2407 1.55095 14.1203C0.544933 15.0417 0 16.3402 0 17.8899C0 19.4396 0.544933 20.7381 1.55095 21.6595C2.47314 22.4972 3.77258 22.9999 5.15586 22.9999C6.53914 22.9999 7.71283 22.4554 8.63501 21.3245L8.67693 21.2826L7.54515 19.9004ZM9.85052 22.7904H11.8626V12.9474H9.85052V22.7904ZM21.4198 22.7904H23.4318V12.9474H21.4198V22.7904Z" fill="#003B70"/>
<path d="M24.6475 11.1883C22.8031 8.59145 19.7431 6.99982 16.6412 6.99982C13.5393 6.99982 10.4794 8.54956 8.63499 11.1883L8.55115 11.314H10.8566L10.8985 11.2721C12.4914 9.63857 14.5454 8.75899 16.6832 8.75899C18.821 8.75899 20.8749 9.63857 22.4678 11.2721L22.5097 11.314H24.8151L24.6475 11.1883Z" fill="#D9261C"/>
</g>
<defs>
<clipPath id="clip0">
<rect width="61" height="30" fill="white"/>
</clipPath>
</defs>
</svg>
