<svg width="52" height="30" viewBox="0 0 52 30" fill="none" xmlns="http://www.w3.org/2000/svg">
<path d="M12.5044 10.5146H2.49121V20.5267H12.5044V10.5146Z" fill="white"/>
<path d="M13.8714 15.503C13.8714 14.5089 13.907 13.6391 14.6349 12.0769C14.8479 11.6331 15.3095 10.9585 14.6349 10.1952C14.0845 9.64487 13.4454 9.73363 13.0193 9.98216C13.2678 9.55612 13.3566 8.91704 12.8062 8.36673C12.0428 7.67441 11.3859 8.15371 10.9243 8.34898C9.37972 9.07681 8.49202 9.13007 7.49781 9.13007C6.50359 9.13007 5.63365 9.09457 4.07131 8.34898C3.62746 8.13596 2.95282 7.67441 2.1894 8.36673C1.63903 8.91704 1.7278 9.55612 1.97635 9.98216C1.55026 9.73363 0.911121 9.64487 0.360751 10.1952C-0.331649 10.9585 0.147705 11.6153 0.360751 12.0769C1.08866 13.6213 1.12417 14.5089 1.12417 15.503C1.12417 16.4971 1.08866 17.367 0.360751 18.9291C0.147705 19.3729 -0.313896 20.0475 0.360751 20.8108C0.911121 21.3611 1.55026 21.2724 1.97635 21.0239C1.7278 21.4499 1.63903 22.089 2.1894 22.6393C2.95282 23.3316 3.60971 22.8523 4.07131 22.6393C5.6159 21.9115 6.50359 21.876 7.49781 21.876C8.49202 21.876 9.36196 21.9115 10.9243 22.6393C11.3681 22.8523 12.0428 23.3139 12.8062 22.6393C13.3566 22.0712 13.2678 21.4499 13.0193 21.0239C13.4454 21.2724 14.0845 21.3611 14.6349 20.8108C15.3273 20.0475 14.8479 19.3907 14.6349 18.9291C13.907 17.3847 13.8714 16.4971 13.8714 15.503ZM12.1671 20.2073L8.52753 17.1539C8.52753 17.1539 8.03042 16.6746 7.48005 16.6746C6.92968 16.6746 6.43257 17.1539 6.43257 17.1539L2.81079 20.2073L2.79303 20.1895L5.8467 16.5504C5.8467 16.5504 6.32605 16.0533 6.32605 15.503C6.32605 14.9527 5.8467 14.4556 5.8467 14.4556L2.79303 10.8165L2.81079 10.7987L6.45033 13.8521C6.45033 13.8521 6.94744 14.3314 7.49781 14.3314C8.04817 14.3314 8.54529 13.8521 8.54529 13.8521L12.1848 10.7987L12.2026 10.8165L9.14892 14.4556C9.14892 14.4556 8.66956 14.9527 8.66956 15.503C8.66956 16.0533 9.14892 16.5504 9.14892 16.5504L12.1671 20.2073Z" fill="#CC0000"/>
<path d="M50.4445 8.88176H50.5688L50.6221 11.2605H50.4801C50.2493 10.3019 49.3083 9.37881 47.4441 9.29005C45.2427 9.18354 44.284 10.4972 44.2662 11.7221C44.2485 13.373 45.5445 13.7103 47.4441 14.1896C48.3496 14.4026 51.6873 14.8464 51.421 18.5921C51.2435 21.2016 48.971 22.462 45.7753 22.3555C45.7753 22.3555 44.4437 22.3022 42.5973 21.7874C42.2423 21.6986 42.1712 21.8052 42.0292 22.0537H41.8872V19.4797L42.0292 19.4974C42.1002 19.7637 42.118 20.243 42.5973 20.6513C42.9524 20.9531 43.7513 21.6986 45.509 21.7164C47.2489 21.7341 48.6869 21.0063 48.8822 19.0714C48.9355 18.5388 48.8822 17.3494 47.7105 16.7991C46.7873 16.3731 44.2485 16.089 43.0234 15.0062C43.0234 15.0062 41.5676 13.9943 41.7984 12.0949C42.118 9.41431 44.355 8.73974 46.3789 8.70424C46.3789 8.70424 48.1898 8.68648 49.6101 9.05927C49.6101 9.05927 49.9652 9.14803 50.267 9.04152C50.338 9.00602 50.409 8.91726 50.4445 8.88176ZM37.8571 15.0594C41.1238 15.876 41.3191 18.237 41.2836 18.8938C41.1415 21.8407 38.6205 22.1957 37.6263 22.1957H29.9033V22.0537C30.4715 21.9827 30.8798 21.6631 30.8798 20.6868L30.9331 10.5149C30.9508 9.41431 30.649 9.07703 30.0454 9.00602L30.0276 8.864H35.8686C36.9339 8.864 40.1651 8.65098 40.4314 11.6156C40.6444 13.9588 38.0524 14.9529 37.8571 15.0594ZM38.7092 18.9116C38.7625 16.0535 36.6676 15.2902 34.4838 15.1659C34.4483 15.1659 34.4483 15.0594 34.4838 15.0417C35.194 15.0062 37.9991 14.6866 37.8926 12.0061C37.786 9.39656 35.7976 9.32555 35.0697 9.32555C34.4838 9.32555 34.3418 9.32555 34.0932 9.32555C33.6672 9.34331 33.5606 9.37881 33.5606 9.84036C33.5606 9.89361 33.4719 14.5624 33.4186 17.8287C33.3831 19.6039 33.3831 20.9886 33.3831 20.9886C33.3831 21.3081 33.3476 21.6454 34.1465 21.6809C34.9809 21.7164 36.0462 21.7519 36.7918 21.5921C37.502 21.4324 38.6737 20.9353 38.7092 18.9116ZM23.3344 8.8285C26.104 8.81075 29.7791 10.728 29.7613 15.4855C29.7435 19.6217 26.7609 22.1779 23.9913 22.1779H16.9785V22.0359C17.3691 21.9649 17.8129 21.7164 17.884 21.4501C18.1148 20.456 18.0615 11.3315 17.9195 9.82261C17.884 9.36106 17.5111 9.05927 17.0495 8.97051V8.8285C17.0673 8.8285 22.713 8.84625 23.3344 8.8285ZM24.6127 21.3259C25.8554 20.8821 27.4 18.7518 27.1515 15.4145C26.9029 12.1836 25.6779 9.64509 22.3934 9.39656C22.3934 9.39656 21.7721 9.3433 21.2572 9.3433C20.7068 9.3433 20.5826 9.32555 20.5293 9.91136C20.4583 11.0297 20.4405 19.7282 20.5115 20.9886C20.5293 21.1661 20.547 21.5744 21.2572 21.6454C22.5532 21.7697 23.6362 21.6809 24.6127 21.3259Z" fill="#2C2C2C"/>
</svg>
