<svg width="73" height="30" viewBox="0 0 73 30" fill="none" xmlns="http://www.w3.org/2000/svg">
<g clip-path="url(#clip0_1413_3593)">
<path d="M30.1774 7H13.4056V23.9801H30.1774V7Z" fill="white"/>
<path d="M38.5642 15.51L30.1783 7V24L38.5642 15.51Z" fill="#DB0012"/>
<path d="M21.7915 15.51L30.1782 7H13.4056L21.7915 15.51Z" fill="#DB0012"/>
<path d="M5 15.51L13.4056 24V7L5 15.51Z" fill="#DB0012"/>
<path d="M21.7915 15.5099L13.4056 24H30.1782L21.7915 15.5099Z" fill="#DB0012"/>
<path d="M45.9241 16.0172H42.8856V19.0536H41.3655V11.9421H42.8856V14.8589H45.9241V11.9421H47.4434V19.0536H45.9241V16.0172Z" fill="black"/>
<path d="M51.113 19.194C49.5938 19.194 48.3503 18.5749 48.3306 16.8764H49.8498C49.8695 17.6359 50.3037 18.0946 51.1524 18.0946C51.7836 18.0946 52.4747 17.7747 52.4747 17.0758C52.4747 16.5166 52.0011 16.3571 51.2115 16.1169L50.6985 15.9773C49.5938 15.6574 48.4881 15.2178 48.4881 13.9398C48.4881 12.3617 49.9483 11.8224 51.2706 11.8224C52.5929 11.8224 53.8158 12.3019 53.8355 13.8799H52.3163C52.2572 13.221 51.8821 12.8612 51.1721 12.8612C50.6 12.8612 50.0477 13.1612 50.0477 13.8002C50.0477 14.3195 50.5212 14.4791 51.5078 14.799L52.0996 14.9785C53.3037 15.3582 54.0531 15.7779 54.0531 16.9562C54.0334 18.5741 52.4944 19.1931 51.113 19.1931" fill="black"/>
<path d="M57.4873 17.9949C58.1972 17.9949 58.8884 17.8354 58.8884 16.9562C58.8884 16.077 58.2769 15.9175 57.5661 15.9175H56.362V17.9949H57.4864H57.4873ZM57.3494 14.9187C58.02 14.9187 58.6914 14.7791 58.6914 13.9597C58.6914 13.2202 58.0405 13.0207 57.4282 13.0207H56.3628V14.9187H57.3494ZM54.9027 11.9421H57.3494C58.1193 11.9421 58.4345 11.9621 58.7308 12.0219C59.5795 12.2213 60.2303 12.7806 60.2303 13.7395C60.2303 14.6985 59.6583 15.1181 58.8293 15.3375C59.7764 15.5169 60.4864 15.9964 60.4864 17.0559C60.4864 18.6738 58.908 19.0336 57.6842 19.0336H54.9215V11.9421H54.9018H54.9027Z" fill="black"/>
<path d="M64.4327 19.194C62.1633 19.194 61.157 17.7356 61.157 15.5585C61.157 13.3814 62.2814 11.8025 64.5115 11.8025C65.9126 11.8025 67.2743 12.4415 67.3137 14.0403H65.7353C65.6565 13.3406 65.1829 12.9617 64.5124 12.9617C63.1507 12.9617 62.7165 14.46 62.7165 15.5984C62.7165 16.7368 63.131 18.0556 64.4533 18.0556C65.1435 18.0556 65.6565 17.6758 65.7559 16.957H67.3342C67.1766 18.5749 65.8938 19.194 64.4336 19.194" fill="black"/>
</g>
<defs>
<clipPath id="clip0_1413_3593">
<rect width="62.3333" height="17" fill="white" transform="translate(5 7)"/>
</clipPath>
</defs>
</svg>
