<svg width="85" height="30" viewBox="0 0 85 30" fill="none" xmlns="http://www.w3.org/2000/svg">
<g clip-path="url(#clip0)">
<path d="M85 5H0V25H85V5Z" fill="#FABC19"/>
<path fill-rule="evenodd" clip-rule="evenodd" d="M53.1762 19.7189C51.2941 19.7189 49.9513 19.2245 49.9513 19.2245V9.65771H52.5337V12.9322C52.7017 12.8478 53.1604 12.6566 53.8765 12.6566C54.2564 12.6566 57.5094 12.772 57.5094 15.9586C57.5094 19.1453 55.0583 19.7189 53.1762 19.7189ZM52.5337 17.998V17.9981C52.9994 18.1221 54.9112 18.4855 54.9112 16.1171C54.9112 15.9603 54.9028 15.8161 54.8868 15.6836C54.6663 13.8503 53.0137 14.2596 52.5337 14.4186L52.5337 17.998ZM79.394 15.9294L82.26 19.5691H79.3713L76.7679 16.1224V19.5691H74.2292V9.67158H76.7679V15.7434L79.0876 12.7721H82.0044L79.394 15.9294ZM27.7095 19.576L30.0293 13.3457L30.7874 19.576H33.2385L31.9114 10.4243H28.9193L26.9392 15.9225L24.959 10.4243H21.9687L20.6399 19.576H23.091L23.8508 13.3457L26.1706 19.576H27.7095ZM40.5918 12.772L43.7432 19.5758L42.4966 22.2457H45.2103L49.5435 12.772H46.7422L45.079 17.5295L43.393 12.772H40.5918ZM58.8944 14.4947C62.6008 13.4181 62.6008 14.71 62.6008 14.8822V15.113C59.6017 15.1372 57.8159 15.9812 57.8159 17.509C57.8159 19.0593 59.4792 19.7345 61.6816 19.7345C63.8841 19.7345 65.0081 19.2316 65.0081 19.2316V14.9976C65.0081 13.5042 64.0312 12.5568 61.6816 12.5568C59.3321 12.5568 58.3114 13.1029 58.3114 13.1029L58.8944 14.4947ZM60.1935 17.4798C60.1935 17.3527 60.2254 17.2409 60.282 17.1426C60.6611 16.4842 62.1499 16.4307 62.6008 16.4307L62.6008 18.1739V18.1739C62.0598 18.2359 60.1935 18.3892 60.1935 17.4798ZM38.3525 14.8822C38.3525 14.71 38.3525 13.4181 34.6461 14.4947L34.0631 13.1029C34.0631 13.1029 35.0838 12.5568 37.4334 12.5568C39.7829 12.5568 40.7598 13.5042 40.7598 14.9976V19.2316C40.7598 19.2316 39.6358 19.7345 37.4334 19.7345C35.2309 19.7345 33.5677 19.0593 33.5677 17.509C33.5677 15.9812 35.3535 15.1372 38.3525 15.113V14.8822ZM36.8858 16.6071C36.3778 16.7513 35.9452 17.0116 35.9452 17.4798C35.9452 18.1887 37.0791 18.2519 37.8354 18.2159C38.0003 18.2081 38.1472 18.1955 38.2605 18.1839C38.2943 18.1805 38.3251 18.1771 38.3525 18.1739V18.1739L38.3527 18.1739V16.4307C38.0824 16.4307 37.4393 16.4499 36.8858 16.6071ZM73.2646 19.5604H70.712V15.2249C70.712 14.777 70.5001 13.8469 68.5375 14.4119V19.5604H65.9849V13.0873C65.9849 13.0873 67.6044 12.5412 69.6177 12.5412C71.6311 12.5412 73.2646 13.0149 73.2646 15.2542V19.5604Z" fill="black"/>
<path d="M10.4888 21.9876C14.4107 21.9876 17.59 18.8597 17.59 15.0011C17.59 11.1426 14.4107 8.01465 10.4888 8.01465C6.56698 8.01465 3.3877 11.1426 3.3877 15.0011C3.3877 18.8597 6.56698 21.9876 10.4888 21.9876Z" fill="#FABC19"/>
<path d="M10.4889 8.01281C14.4106 8.01281 17.59 11.1409 17.59 14.9993C17.59 18.8577 14.4106 21.9858 10.4889 21.9858C6.56718 21.9858 3.38778 18.8577 3.38778 14.9993C3.38778 11.1409 6.56718 8.01281 10.4889 8.01281ZM10.4889 7.37549C6.21527 7.37549 2.73999 10.7964 2.73999 14.9993C2.73999 19.2039 6.21702 22.6231 10.4889 22.6231C14.7625 22.6231 18.2378 19.2022 18.2378 14.9993C18.2396 10.7964 14.7625 7.37549 10.4889 7.37549Z" fill="black"/>
<path d="M7.15195 12.3313C7.15195 12.3313 7.31652 11.6957 7.57914 11.4804C7.84175 11.2651 8.78717 10.6518 10.151 10.2212C10.3138 10.1695 10.5012 10.2281 10.5099 10.2315C10.5012 10.2849 10.4959 10.3194 10.4924 10.3332C10.4749 10.4331 10.3979 10.4985 10.3979 10.4985C10.6745 10.5347 10.8583 10.3401 10.9091 10.1179C10.9599 9.89566 11.135 9.01374 11.4203 9.02752C12.2152 9.06369 12.7842 11.5889 12.7264 11.7043C12.6879 11.7801 12.3763 11.7181 12.3763 11.7181C12.8717 12.4863 13.5213 12.4794 13.6683 12.3571C13.8136 12.2348 13.7349 11.8404 13.7349 11.8404C15.2965 12.7516 15.209 13.835 15.209 13.835C15.6765 12.0402 14.5962 11.2719 14.5962 11.2719C15.0199 11.2582 15.4786 11.5234 15.4786 11.5234C14.8221 10.6553 13.4652 10.1747 13.4652 10.1747C13.4652 10.1747 11.8825 8.44531 11.3713 8.50904C10.9476 8.56244 10.706 9.32723 10.5887 9.84915C10.5309 9.84398 10.4189 9.84054 10.2753 9.85604C10.1633 9.71996 9.68882 9.16532 9.50499 9.3479C9.43321 9.41853 9.41045 9.91633 9.40519 10.1265C8.63835 10.4262 7.33403 10.9912 7.06966 11.4046C6.82806 11.7818 6.77378 12.0608 6.77378 12.0608C6.77378 12.0608 5.20859 13.0513 4.82692 14.1279C4.82167 14.1279 5.87213 12.9221 7.15195 12.3313Z" fill="black"/>
<path d="M12.1855 11.5304C12.1644 10.7346 11.7618 10.0955 11.5587 10.0594C11.3538 10.0232 11.2891 10.7845 11.2891 10.7845C11.8283 11.1359 12.1855 11.5304 12.1855 11.5304Z" fill="black"/>
<path d="M8.34086 11.3874C8.02747 11.5734 8.16578 11.7319 8.16578 11.7319C8.16578 11.7319 8.11501 11.5734 8.50193 11.4666C9.19173 11.2754 9.815 11.079 9.801 10.9137C9.78699 10.7483 9.31954 10.6846 9.31954 10.6846C9.45084 10.8551 8.65424 11.1996 8.34086 11.3874Z" fill="black"/>
<path d="M8.11475 13.2096C8.11475 13.2096 8.31259 12.7583 8.4579 12.6997C8.4579 12.6997 8.71352 12.7652 8.85183 12.7135C8.99014 12.6635 9.25275 12.319 9.35605 12.3121C9.35605 12.3121 9.08643 13.4679 7.9922 13.4455C7.9922 13.4455 8.78005 13.8831 9.18097 13.5747C9.5819 13.2664 9.27551 13.0287 9.79374 12.5343C10.312 12.04 9.96882 12.0176 9.94781 12.0245C9.9268 12.0314 9.76573 11.9814 9.76573 11.9814C9.76573 11.9814 9.83926 11.8884 9.98458 11.8229C10.1299 11.7575 10.9685 11.3854 10.9843 11.1632C10.9983 10.941 10.3785 10.6895 10.0651 10.6964C10.0651 10.6964 10.3487 10.8118 10.3347 10.9686C10.3207 11.1253 9.50312 11.4784 9.50312 11.9297C9.50312 11.9297 9.21074 11.9504 8.99889 11.9091C8.78705 11.8677 8.5612 11.8884 8.32835 12.0383C8.09549 12.1881 8.07974 11.8522 8.1025 11.8092C8.1025 11.8092 7.6508 12.0882 8.2198 12.4482C8.2198 12.4482 7.98695 12.6859 7.96419 12.7428C7.94143 12.7996 7.84513 13.1097 8.11475 13.2096ZM8.66625 12.4413C8.76079 12.4413 8.83782 12.3655 8.83782 12.2725C8.83782 12.2226 8.81331 12.1778 8.7783 12.1468C8.8921 12.1399 9.15121 12.1537 9.15121 12.1537C9.12145 12.1468 9.05667 12.2191 8.9096 12.3983C8.76254 12.5774 8.62598 12.4413 8.62598 12.4413L8.62423 12.4327C8.63648 12.4362 8.65049 12.4413 8.66625 12.4413Z" fill="black"/>
<path d="M7.39357 14.6878C7.39357 14.6878 7.38306 14.2778 6.99965 14.3639C6.35536 14.5086 6.13477 15.6352 6.13477 15.6352C6.85608 14.3226 7.39357 14.6878 7.39357 14.6878Z" fill="black"/>
<path d="M7.63338 15.6901C7.98354 15.1303 7.55635 14.7754 7.01011 15.0769C6.46387 15.3783 6.33081 16.1 6.33081 16.1C7.41454 14.9356 7.63338 15.6901 7.63338 15.6901Z" fill="black"/>
<path d="M6.23279 14.6443C6.62671 14.0208 7.07491 14.0311 7.07491 14.0311C6.53917 13.6435 6.23279 14.6443 6.23279 14.6443Z" fill="black"/>
<path d="M12.798 14.9685C12.798 14.9685 12.4041 14.624 12.4478 13.9884C12.4916 13.3528 12.6124 12.3951 11.5182 11.7285C11.5182 11.7285 11.9664 12.4072 11.8018 13.0738C11.6372 13.7404 11.0892 14.8807 11.1348 15.2596C11.2328 16.0882 12.1082 16.2398 12.0434 17.3697C12.0434 17.3697 12.5581 16.7565 12.4601 16.0348C12.362 15.313 11.716 15.0013 12.0014 14.4311C11.9996 14.4294 12.327 14.9031 12.798 14.9685Z" fill="black"/>
<path d="M15.9478 11.9644C15.9478 11.9644 16.9037 14.524 15.8252 16.8477C15.8252 16.8477 15.8865 16.51 15.6204 15.8434C15.3368 15.1286 15.4313 14.2071 15.5469 14.0348C15.5469 14.0348 15.0216 14.5516 15.0514 15.4128C15.0811 16.2741 15.314 18.6993 13.5335 19.6037C13.5335 19.6037 14.2075 18.391 13.9572 16.97C13.9572 16.97 14.1865 17.0561 14.3073 17.3575C14.3073 17.3575 14.7888 16.1087 14.1655 14.5808C14.1655 14.5808 14.5156 14.6463 14.7345 14.8289C14.7345 14.8289 14.9638 13.7351 13.705 12.9669C13.3881 12.7739 13.4319 12.6654 13.4319 12.6654C13.4319 12.6654 13.3339 12.9135 13.5405 13.1615C13.7471 13.4095 14.0324 13.8936 13.9887 14.1416C13.9887 14.1416 13.649 13.9039 13.157 13.9693C13.157 13.9693 14.099 14.7548 13.9554 16.4446C13.9554 16.4446 13.7138 16.1862 13.101 16.0794C13.101 16.0794 13.7908 17.3506 13.1781 18.5667C13.1781 18.5667 13.1343 18.1361 12.9364 17.8674C12.9364 17.8674 12.7824 18.7614 11.6899 19.0731C11.6899 19.0731 12.5758 17.9862 11.5253 17.4367C10.4749 16.8873 9.58897 18.1051 9.4139 19.1696C9.4139 19.1696 8.19886 19.2557 8.07981 18.7717C7.96075 18.2877 8.30916 18.0827 8.30916 18.0827C8.30916 18.0827 8.49474 18.2015 8.92193 18.0069C9.34912 17.8123 10.2455 17.2852 10.158 16.6186C10.0704 15.952 9.00947 15.294 8.16559 15.5644C7.32172 15.8348 6.84201 16.5652 6.40432 16.5548C5.96662 16.5445 5.43089 15.8882 5.50792 15.5437C5.58495 15.1992 5.86858 15.1028 5.96662 14.5206C5.96662 14.5206 5.81256 14.5343 5.71101 14.4706C5.60947 14.4069 5.33985 14.2983 5.19278 14.3345C5.04747 14.3707 4.68856 14.6067 4.67455 14.5636C4.66055 14.5206 4.71132 14.2622 4.71132 14.2622C4.71132 14.2622 4.3174 14.6721 4.37517 14.8358C4.43295 15.0011 4.7761 15.4094 5.13326 15.6402C5.13326 15.6402 5.19979 16.1431 5.66549 16.6082C5.94386 16.8873 6.20473 16.9372 6.42708 16.8907C6.52162 17.0268 6.84026 17.4402 7.34973 17.5298C7.34973 17.5298 7.2622 16.9527 7.32522 16.5169C7.34623 16.5066 7.36549 16.4963 7.38125 16.4808C7.46178 16.4015 8.39495 15.5558 9.08825 16.374C9.08825 16.374 8.77486 16.4894 8.65056 16.8769C8.52625 17.2645 8.45447 18.2257 7.42502 17.609C7.42502 17.609 7.33748 18.1619 7.65087 18.4909C7.65087 18.4909 7.6071 19.08 8.28465 19.4021C8.9622 19.7242 9.43666 19.4814 9.87435 19.6967C9.87435 19.6967 9.83058 18.8148 10.2035 18.2756C10.5764 17.7365 11.1016 17.5573 11.3555 17.7657C11.6111 17.9742 11.7722 18.7631 10.7865 19.5813C10.7865 19.5813 11.9175 19.7242 12.6913 19.1438C12.6913 19.1438 12.595 20.1686 11.8142 21.0385C14.6417 20.4408 16.7531 17.9673 16.7531 15.0063C16.7601 13.897 16.4643 12.8601 15.9478 11.9644ZM5.32059 15.4059C5.15251 15.4059 4.85313 14.9684 4.80236 14.8823C4.75159 14.7962 5.08598 14.6377 5.18928 14.6101C5.29258 14.5826 5.39937 14.605 5.41513 14.6532C5.42914 14.6962 5.20329 14.8323 5.17352 14.8823C5.14376 14.9322 5.3521 15.1217 5.38537 15.1613C5.44489 15.2337 5.48866 15.4059 5.32059 15.4059ZM6.69144 16.7856C6.73871 16.7581 6.78248 16.7288 6.8245 16.6978C6.9313 16.6186 7.01183 16.5807 7.06436 16.5634C7.05385 16.715 7.04335 16.982 7.09237 17.2025C7.09237 17.2025 6.80875 17.0233 6.69144 16.7856ZM8.91668 17.1491C8.91668 17.1491 9.25983 17.1629 9.27383 17.106C9.28784 17.0492 9.16529 16.6547 9.16529 16.6547C9.16529 16.6547 9.59598 16.6978 9.60298 16.8339C9.60998 16.97 9.36137 17.3145 8.83614 17.5367C8.83789 17.5367 8.93243 17.2645 8.91668 17.1491ZM7.82419 18.2842C7.72615 18.2515 7.63861 17.8967 7.63861 17.8967C7.78042 18.0103 8.07105 18.0155 8.07105 18.0155C7.93449 18.1447 7.92399 18.3169 7.82419 18.2842Z" fill="black"/>
<path d="M11.4046 12.2053C11.4046 12.2053 10.6675 11.797 10.3401 12.219C10.032 12.6169 10.2316 13.3008 10.0512 13.7262C10.046 13.7211 10.039 13.7159 10.0337 13.7107C9.62579 13.3524 9.12157 13.9622 9.02703 14.1414C8.93249 14.3205 8.80818 14.3429 8.80818 14.3429C7.91179 14.522 8.10087 13.8124 7.80149 13.597C7.50211 13.3817 6.99963 13.6969 6.99963 13.6969C7.50386 13.6039 7.61941 13.9484 7.6054 14.0845C7.59139 14.2206 7.69294 14.6219 7.83125 14.8459C7.96956 15.0681 8.53156 14.9113 8.99026 14.9458C9.44896 14.9819 9.71158 15.5349 9.71158 15.5349C9.9882 14.8751 9.24412 14.5737 9.24412 14.5737C9.24412 14.5737 9.46122 14.1689 9.71858 14.3084C10.5362 14.7528 10.3314 16.5546 10.3314 16.5546C11.0352 15.2524 10.7253 14.4893 10.3576 14.0414C10.4066 13.6349 10.615 12.3551 11.4046 12.2053Z" fill="black"/>
</g>
<defs>
<clipPath id="clip0">
<rect width="85" height="30" fill="white"/>
</clipPath>
</defs>
</svg>
