<svg width="81" height="30" viewBox="0 0 81 30" fill="none" xmlns="http://www.w3.org/2000/svg">
<g clip-path="url(#clip0_1132_510)">
<path d="M9.20232 6.25575C13.0163 3.99284 18.9595 4.64638 22.1746 9.37017C25.2965 13.9598 24.0731 20.2419 19.4675 23.318C14.8196 26.4218 8.85944 24.9934 5.99365 20.9487C6.09948 20.8209 6.2434 20.8805 6.36828 20.8805C8.02764 20.8805 9.68489 20.904 11.3443 20.8891C12.8597 20.8763 14.3413 20.6357 15.7593 20.078C17.4229 19.4223 18.6251 18.3005 19.1648 16.5485C20.2506 13.0147 17.461 9.45532 13.791 9.68949C13.4206 9.7129 13.0502 9.77251 12.6946 9.88746C12.4956 9.95133 12.3623 9.93643 12.212 9.76187C11.2257 8.59742 10.2246 7.44361 9.20444 6.25575H9.20232Z" fill="#E30815"/>
<path d="M33.1299 8.00782C37.0011 8.00356 40.0764 11.1116 40.0954 15.003C40.1145 18.5581 37.3016 21.9833 33.1172 21.9982C29.2842 22.011 26.1792 18.8583 26.1729 15.0158C26.1665 11.1329 29.2651 8.00995 33.1278 8.00782H33.1299ZM33.1257 11.3053C31.079 11.3053 29.4027 12.9934 29.4154 15.0435C29.426 17.068 31.1002 18.7454 33.1151 18.7497C35.1554 18.754 36.819 17.068 36.8127 15.003C36.8063 12.9658 35.1512 11.3053 33.1236 11.3053H33.1257Z" fill="#E30815"/>
<path d="M62.9813 14.6223C63.0575 14.7798 63.1845 14.8054 63.2818 14.865C64.2067 15.4334 64.6766 16.2806 64.7443 17.3493C64.8396 18.865 64.374 20.138 63.0511 20.9853C62.1389 21.5686 61.1124 21.7687 60.0499 21.7793C58.3418 21.7963 56.6317 21.7857 54.9236 21.7836C54.5278 21.7836 54.5215 21.7751 54.5194 21.3983C54.5194 17.1279 54.5194 12.8575 54.5151 8.58719C54.5151 8.36154 54.5151 8.20188 54.8263 8.20614C56.7206 8.23594 58.617 8.16995 60.5113 8.24658C61.2097 8.27426 61.8764 8.46585 62.5072 8.7724C64.7951 9.87937 64.8608 13.1854 63.1929 14.4478C63.1252 14.4988 63.0617 14.5542 62.9792 14.6223H62.9813ZM57.7598 17.5004C57.7598 17.9603 57.764 18.418 57.7598 18.8778C57.7577 19.0502 57.8275 19.129 57.9968 19.1268C58.7228 19.1119 59.453 19.1843 60.1769 19.0843C60.9579 18.9757 61.5357 18.2221 61.4934 17.4025C61.451 16.5489 60.8457 15.9337 59.997 15.9102C59.3557 15.8932 58.7122 15.9145 58.0688 15.8996C57.8169 15.8932 57.7492 15.989 57.7577 16.2274C57.7725 16.6511 57.7619 17.0768 57.7619 17.5026L57.7598 17.5004ZM58.9218 10.9012V10.8969C58.617 10.8969 58.3143 10.8991 58.0095 10.8969C57.8508 10.8948 57.7577 10.9395 57.7598 11.1247C57.764 11.906 57.764 12.6872 57.7598 13.4685C57.7598 13.6409 57.8317 13.7176 57.999 13.7133C58.6233 13.7027 59.2498 13.758 59.8721 13.6835C60.6256 13.5941 61.0679 13.0279 61.0446 12.2232C61.0214 11.4462 60.5557 10.9523 59.7853 10.9054C59.4996 10.8884 59.2117 10.9033 58.9239 10.9033L58.9218 10.9012Z" fill="#E30815"/>
<path d="M51.2493 13.0084C50.4302 11.9035 49.4037 11.2926 48.0703 11.3075C47.0395 11.3181 46.1633 11.7119 45.4479 12.4591C44.0002 13.9727 44.0996 16.4017 45.6616 17.7981C47.1559 19.135 49.6577 19.1755 51.1879 17.1233C51.2959 17.0978 51.334 17.1808 51.3805 17.2468C51.9202 18.0089 52.4494 18.7774 53.006 19.5288C53.1796 19.763 53.1351 19.8907 52.9404 20.0696C51.4101 21.4724 49.6259 22.1175 47.5538 21.9663C44.6118 21.7492 42.0212 19.5459 41.3376 16.523C40.4804 12.7231 42.9821 8.83806 46.7855 8.13768C49.0968 7.71192 51.1413 8.29521 52.8875 9.88542C53.2346 10.2005 53.2304 10.209 52.9721 10.5752C52.4134 11.3649 51.8546 12.1526 51.2472 13.0105L51.2493 13.0084Z" fill="#E30815"/>
<path d="M75.6763 12.9466C74.0508 10.7709 71.475 10.9753 70.0675 12.3015C68.5457 13.7363 68.5013 16.1504 69.968 17.6491C71.2655 18.9732 73.8879 19.4202 75.6933 17.0998C75.8901 17.2425 75.9938 17.4617 76.1314 17.6512C76.5864 18.2856 77.0267 18.9306 77.4923 19.5586C77.6362 19.7523 77.6172 19.8609 77.45 20.0227C76.3938 21.0445 75.1408 21.6767 73.7016 21.9109C70.6284 22.4112 67.5806 20.7677 66.281 17.9301C64.3381 13.6852 66.9816 8.74219 71.5914 8.07375C73.8095 7.7523 75.7758 8.38881 77.4225 9.94708C77.6976 10.2068 77.6955 10.2153 77.4796 10.5197C76.9526 11.2691 76.4214 12.0163 75.8901 12.7635C75.8435 12.8295 75.8076 12.9146 75.6763 12.9466Z" fill="#E30815"/>
<path d="M9.84567 17.5811C9.71657 16.7721 9.60439 16.0037 9.67212 15.1756C10.5653 15.4587 11.4119 15.729 12.2606 15.9973C12.9697 16.2208 13.6766 16.4464 14.3878 16.6615C14.5909 16.7232 14.7074 16.8083 14.6798 17.0489C14.6417 17.3852 14.8132 17.8067 14.6142 18.0388C14.4068 18.2815 13.9793 18.1197 13.6491 18.1218C10.7748 18.1303 7.89846 18.1282 5.02421 18.1261C4.47602 18.1261 4.51836 18.2325 4.35115 17.6088C3.9998 16.2953 3.90456 14.9648 4.1014 13.6173C4.10775 13.5704 4.13526 13.5257 4.15008 13.4832C4.32152 13.4257 4.45698 13.5257 4.59455 13.5704C5.8687 13.9664 7.13439 14.3879 8.41066 14.7668C8.73026 14.8626 8.83397 15.0159 8.8509 15.3288C8.89112 16.0569 9.15145 16.7168 9.52396 17.3363C9.56629 17.4087 9.6192 17.4768 9.67423 17.5385C9.69117 17.5577 9.7335 17.5555 9.84567 17.5811Z" fill="#E40C18"/>
<path d="M6.09131 8.87245C6.70087 8.09119 7.35065 7.45893 8.11683 6.90332C9.26611 8.03797 10.4069 9.1641 11.5731 10.3158C11.0673 10.6606 10.5974 10.9842 10.2228 11.4206C10.0662 11.6016 9.95187 11.4568 9.83334 11.378C8.9063 10.7607 7.97926 10.1391 7.05433 9.51961C6.74743 9.31311 6.44054 9.10875 6.09131 8.87458V8.87245Z" fill="#E40C18"/>
<path d="M5.47105 9.78777C6.77695 10.5669 8.04052 11.3205 9.30621 12.072C9.42685 12.1422 9.54961 12.204 9.44167 12.3828C9.14535 12.8809 8.97603 13.4301 8.84057 13.9985C8.5887 13.9772 8.39821 13.8602 8.19714 13.7814C7.03728 13.3152 5.87742 12.8468 4.71968 12.3764C4.3895 12.2423 4.38738 12.2359 4.49321 11.9059C4.72391 11.1757 5.02657 10.4775 5.47105 9.78564V9.78777Z" fill="#E40C18"/>
<path d="M13.558 19.2693C13.0176 19.9264 12.3671 20.255 11.6066 20.255C9.72711 20.255 7.84974 20.2443 5.97026 20.2635C5.59563 20.2677 5.36916 20.1592 5.22735 19.8122C5.08131 19.4567 4.84426 19.1395 4.76807 18.7584C4.91199 18.6562 5.05168 18.6967 5.18079 18.6967C6.23059 18.6924 7.28039 18.7052 8.32808 18.6882C8.62439 18.6839 8.85933 18.7499 9.02653 18.9947C9.18951 19.2331 9.41598 19.2757 9.68689 19.2736C10.8044 19.263 11.922 19.2693 13.0374 19.2693C13.1876 19.2693 13.3379 19.2693 13.5559 19.2693H13.558Z" fill="#E40C18"/>
<path d="M14.6757 16.191C14.4979 16.257 14.4006 16.1783 14.2947 16.1378C12.9105 15.6035 11.5284 15.0713 10.1463 14.5348C9.74631 14.3794 9.74842 14.3752 9.87753 13.9473C9.98548 13.5875 10.1442 13.2533 10.3432 12.9361C10.4363 12.7871 10.5167 12.7211 10.7051 12.8297C11.9602 13.5577 13.2238 14.273 14.4831 14.9925C14.5868 15.0521 14.6821 15.1117 14.6799 15.2586C14.6736 15.5758 14.6799 15.893 14.6799 16.191H14.6757Z" fill="#E40C18"/>
<path d="M14.6735 14.5392C14.2734 14.3647 11.4733 12.5062 11.0605 12.1486C11.4373 11.7612 11.9135 11.5547 12.394 11.3524C12.5273 11.2971 12.6141 11.3461 12.7051 11.4376C13.3189 12.0443 13.9327 12.651 14.5486 13.2556C14.6396 13.345 14.6756 13.445 14.6735 13.5728C14.6671 13.89 14.6735 14.2072 14.6735 14.5414V14.5392Z" fill="#E40C18"/>
</g>
<defs>
<clipPath id="clip0_1132_510">
<rect width="73.6364" height="20" fill="white" transform="translate(4 5)"/>
</clipPath>
</defs>
</svg>
