<svg width="53" height="30" viewBox="0 0 53 30" fill="none" xmlns="http://www.w3.org/2000/svg">
<path fill-rule="evenodd" clip-rule="evenodd" d="M52.966 15.499L45.2093 23.2576L37.4521 15.499L45.2093 7.74329L52.966 15.499Z" fill="#DC3C41"/>
<path fill-rule="evenodd" clip-rule="evenodd" d="M31.922 9.50926C31.1777 9.50926 30.5004 10.2705 30.3427 11.2008L30.0724 12.8641C29.9133 13.7946 30.4334 14.5554 31.1777 14.5554C31.922 14.5554 32.621 13.7946 32.7796 12.8641L33.0493 11.2008C33.2075 10.2705 32.6657 9.50926 31.922 9.50926ZM31.0195 15.6837C30.2748 15.6837 29.5761 16.4446 29.4404 17.3754L29.1022 19.7999C28.9674 20.7298 29.4631 21.4906 30.2073 21.4906C30.9516 21.4906 31.674 20.7298 31.8088 19.7999L32.1475 17.3754C32.2833 16.4446 31.7628 15.6837 31.0195 15.6837ZM36.816 11.8774C36.635 13.0054 36.0257 14.1045 34.9429 15.1194C35.6876 15.9091 36.0028 16.9517 35.8452 17.9671L35.6876 19.01C35.2819 21.6886 32.5069 23.9997 29.5305 23.9997H24.8162L26.5524 11.9629C26.9373 9.31224 29.7336 7.00073 32.7324 7.00073C35.7768 7.00073 37.2434 9.11474 36.9272 11.145L36.816 11.8774Z" fill="#1D5D9B"/>
<path fill-rule="evenodd" clip-rule="evenodd" d="M13.9975 9.67777C14.2003 8.21155 15.3502 7 16.5233 7C17.6958 7 18.4852 8.21155 18.2819 9.67777L17.4484 15.7393H19.7718L20.6281 9.67777C20.831 8.21155 21.9817 7 23.1548 7C24.3274 7 25.1168 8.21155 24.9135 9.67777L23.2897 21.3212C23.0863 22.787 21.9366 24 20.7629 24C19.5909 24 18.8014 22.787 19.0043 21.3212L19.5234 17.5436H17.1782L16.6591 21.3212C16.4553 22.787 15.3055 24 14.1333 24H12.0123L13.9975 9.67777Z" fill="#1D5D9B"/>
<path fill-rule="evenodd" clip-rule="evenodd" d="M6.85305 9.50926C6.19815 9.50926 5.58984 10.1581 5.47767 10.9755L4.98327 14.5953C4.87124 15.4132 5.29961 16.0626 5.95364 16.0626C6.60708 16.0626 7.21598 15.4132 7.32902 14.5953L7.82298 10.9755C7.93603 10.1581 7.5062 9.50926 6.85305 9.50926ZM0 23.9999L1.71161 11.9901C2.09398 9.34002 4.89089 7.02808 7.89067 7.02808C10.9346 7.02808 12.3787 9.14339 12.0857 11.1732L11.8373 12.9216C11.634 14.3872 10.5512 15.7973 8.63481 16.8397L10.5967 20.1662C10.8224 20.5324 10.9131 21.0956 10.8224 21.6897C10.6197 22.9573 9.67208 23.9999 8.63481 23.9999C8.07162 23.9999 7.61989 23.6911 7.35012 23.2114L4.46252 18.2199L3.96667 21.7164C3.78571 22.9854 2.83827 23.9999 1.8232 23.9999H0Z" fill="#1D5D9B"/>
</svg>
