<svg width="53" height="30" viewBox="0 0 53 30" fill="none" xmlns="http://www.w3.org/2000/svg">
<path fill-rule="evenodd" clip-rule="evenodd" d="M2.95776 12.3667V12.3376H3.77774V12.3667C3.77774 12.819 3.95344 13.1837 4.29022 13.4316C4.59771 13.6505 5.0077 13.7672 5.47625 13.7672C6.03266 13.7672 6.95513 13.6359 6.95513 12.7314C6.95513 12.002 6.1498 11.827 5.2859 11.6519L5.08091 11.6082C4.05594 11.3893 3.14811 11.1122 3.14811 10.0181C3.14811 8.79268 4.24629 8.25293 5.32983 8.25293C6.70621 8.25293 7.51154 8.93856 7.55547 10.1494V10.1785H6.75014V10.1494C6.67693 9.3762 6.17909 8.96774 5.31519 8.96774C4.91984 8.96774 4.01201 9.06985 4.01201 9.94513C4.01201 10.5578 4.72949 10.7183 5.56411 10.8933L5.88624 10.9663C6.80871 11.1705 7.80439 11.506 7.80439 12.7023C7.80439 13.9422 6.61836 14.4966 5.44697 14.4966C4.24629 14.4966 2.95776 13.9276 2.95776 12.3667ZM9.82513 13.6794H10.3669V14.4088H9.81049C8.99052 14.4088 8.52196 14.0149 8.52196 13.0959V8.73406H9.31265V10.0178H10.3815V10.7034H9.31265V13.1104C9.31265 13.446 9.45907 13.6794 9.82513 13.6794ZM14.9939 13.7085L14.95 13.7231C14.8475 13.7523 14.7889 13.7669 14.745 13.7669C14.5547 13.7669 14.5547 13.6647 14.5547 13.3146V11.1119C14.5547 10.2949 14.0129 9.90105 12.9147 9.90105C12.2412 9.90105 11.1137 10.0907 11.0551 11.3598V11.389H11.8165V11.3598C11.8458 10.8347 12.1826 10.5721 12.8562 10.5721C13.4858 10.5721 13.7786 10.7909 13.7786 11.2577C13.7786 11.6331 13.4195 11.6905 12.9168 11.7708L12.8415 11.7829C12.7172 11.7942 12.6016 11.8141 12.4745 11.8361C12.4369 11.8425 12.3984 11.8492 12.3583 11.8558C11.6115 12.0017 10.8794 12.2205 10.8794 13.1979C10.8794 13.9711 11.4212 14.4379 12.329 14.4379C12.944 14.4379 13.4418 14.2191 13.8225 13.8106C13.8518 14.3212 14.174 14.4379 14.4522 14.4379C14.6718 14.4379 14.8329 14.3941 14.9793 14.3066L14.9939 14.292V13.7085ZM12.5047 13.7523C12.2705 13.7523 11.6994 13.6939 11.6994 13.1542C11.6994 12.629 12.124 12.4831 12.534 12.4102C12.5999 12.4029 12.6658 12.3919 12.7317 12.381C12.7976 12.3701 12.8635 12.3591 12.9294 12.3518C13.2661 12.3081 13.5736 12.2643 13.7786 12.1476V12.8186C13.7786 13.1833 13.4418 13.7523 12.5047 13.7523ZM15.6672 14.3649V10.0177L16.414 10.0031V10.6304C16.7068 10.1636 17.1754 9.91559 17.7903 9.91559C18.8007 9.91559 19.2985 10.4408 19.2985 11.5203V14.3649H18.5225V11.4327C18.5225 10.9222 18.2003 10.6012 17.6879 10.6012C16.9118 10.6012 16.4433 11.0972 16.4433 11.9141V14.3649H15.6672ZM23.384 8.38424V10.5433C23.0619 10.091 22.4762 9.91598 22.0076 9.91598C20.7923 9.91598 20.0163 10.8058 20.0163 12.1771C20.0163 12.8044 20.192 13.3733 20.5141 13.7818C20.8655 14.234 21.3927 14.4674 22.0223 14.4674C22.6519 14.4674 23.1351 14.234 23.3694 13.8401V14.3653H24.1454V8.38424H23.384ZM22.1248 13.7672C21.2316 13.7672 20.8216 12.994 20.8216 12.2209C20.8216 11.7395 20.9387 10.6016 22.0809 10.6016C23.3108 10.6016 23.3987 11.827 23.3987 12.1917C23.4133 12.9503 23.0765 13.7672 22.1248 13.7672ZM28.9921 13.7376L29.036 13.723V14.3066L29.0213 14.3211C28.8896 14.4087 28.7138 14.4524 28.4942 14.4524C28.216 14.4524 27.8939 14.3357 27.8646 13.8252C27.4985 14.2336 27.0007 14.4524 26.3857 14.4524C25.4779 14.4524 24.9361 13.9856 24.9361 13.2125C24.9361 12.2351 25.6682 12.0163 26.415 11.8704C26.5761 11.8412 26.7371 11.812 26.8982 11.7974L26.9735 11.7853C27.4762 11.705 27.8353 11.6476 27.8353 11.2723C27.8353 10.8055 27.5425 10.5866 26.9128 10.5866C26.2246 10.5866 25.9025 10.8492 25.8732 11.3744V11.4036H25.0972V11.3744C25.1558 10.1052 26.2832 9.91559 26.9568 9.91559C28.0549 9.91559 28.5967 10.3095 28.5967 11.1264V13.3292C28.5967 13.6793 28.5967 13.7814 28.7871 13.7814C28.831 13.7814 28.8896 13.7668 28.9921 13.7376ZM25.7561 13.1687C25.7561 13.7085 26.3125 13.7668 26.5468 13.7668C27.4839 13.7668 27.8207 13.1979 27.8353 12.8332V12.1621C27.6303 12.2788 27.3228 12.3226 26.9861 12.3664C26.9202 12.3737 26.8543 12.3846 26.7884 12.3955C26.7225 12.4065 26.6566 12.4174 26.5907 12.4247C26.1807 12.4977 25.7561 12.6435 25.7561 13.1687ZM32.0228 9.91571H32.0082C31.2907 9.88653 30.8075 10.1783 30.4414 10.8493V10.0178H29.7093V14.365H30.4707V12.4248C30.4707 11.2724 30.9539 10.7326 31.9935 10.7326H32.0228V9.91571ZM35.5078 10.5433V8.38424H36.2838V14.3653H35.5078V13.8401C35.2588 14.234 34.7756 14.4674 34.146 14.4674C33.5164 14.4674 32.9893 14.234 32.6379 13.7818C32.3157 13.3733 32.14 12.8044 32.14 12.1771C32.14 10.8058 32.9307 9.91598 34.1314 9.91598C34.5999 9.91598 35.1856 10.091 35.5078 10.5433ZM32.9453 12.2209C32.9453 12.994 33.3553 13.7672 34.2485 13.7672C35.1856 13.7672 35.5224 12.9503 35.5224 12.1917C35.5224 11.827 35.4345 10.6016 34.2046 10.6016C33.0625 10.6016 32.9453 11.7395 32.9453 12.2209Z" fill="#0072AA"/>
<path fill-rule="evenodd" clip-rule="evenodd" d="M4.55378 20.4197V20.3905L5.38839 20.4197V20.4489C5.31518 21.1783 5.03697 21.791 4.5977 22.1994C4.14379 22.6225 3.51417 22.8413 2.78205 22.8413C1.06889 22.8413 0 21.6597 0 19.7341C0 18.8588 0.263563 18.071 0.732118 17.5167C1.2446 16.9186 1.97672 16.5977 2.85526 16.5977C3.49953 16.5977 4.05594 16.7727 4.49521 17.0936C4.94912 17.4438 5.24197 17.9397 5.32982 18.5524V18.5816H4.48056V18.5524C4.33414 17.7647 3.71916 17.3125 2.85526 17.3125C2.211 17.3125 1.69851 17.5605 1.3471 18.0273C1.05425 18.4357 0.878542 19.0193 0.878542 19.6611C0.878542 20.3613 1.03961 20.9595 1.3471 21.3825C1.69851 21.8639 2.211 22.0973 2.8699 22.0973C3.8363 22.0973 4.48056 21.4554 4.55378 20.4197ZM6.14979 22.6807V16.6996V16.685H6.92583V18.8878C7.20404 18.4064 7.81902 18.2314 8.27293 18.2314C9.28325 18.2314 9.78109 18.7565 9.78109 19.8214V22.6807H9.00505V19.7485C9.00505 19.2379 8.69756 18.917 8.17043 18.917C7.39439 18.917 6.92583 19.413 6.92583 20.2299V22.6807H6.14979ZM11.3771 19.7339V19.7047C11.4064 19.1795 11.7286 18.9315 12.4168 18.9315C13.0464 18.9315 13.3392 19.1504 13.3392 19.6172C13.3392 20.0111 12.9439 20.0694 12.4021 20.1423C12.2804 20.1545 12.1487 20.1767 12.0068 20.2006L11.9189 20.2153C11.1722 20.3612 10.44 20.58 10.44 21.5574C10.44 22.3305 10.9818 22.7973 11.8896 22.7973C12.5046 22.7973 13.0025 22.5931 13.3685 22.1847C13.3978 22.6952 13.7199 22.7973 13.9981 22.7973C14.2178 22.7973 14.3788 22.7536 14.5253 22.6806L14.5399 22.6661V22.0534L14.496 22.068C14.3935 22.0971 14.3349 22.1117 14.291 22.1117C14.1006 22.1117 14.1006 22.0096 14.1006 21.6595V19.4567C14.1006 18.6398 13.5589 18.2459 12.4607 18.2459C11.7871 18.2459 10.6597 18.4356 10.6011 19.7047V19.7339H11.3771ZM12.0507 22.0971C11.8018 22.0971 11.2454 22.0388 11.2454 21.499C11.2454 20.9739 11.67 20.8426 12.08 20.7696C12.1973 20.7437 12.3146 20.7292 12.4216 20.7161L12.4607 20.7113C12.7975 20.6675 13.1049 20.6237 13.3246 20.507V21.1635C13.3392 21.5136 12.9878 22.0971 12.0507 22.0971ZM36.2691 16.6996V22.6806H35.493V22.1555C35.2441 22.5493 34.7609 22.7827 34.1313 22.7827C33.5017 22.7827 32.9746 22.5493 32.6231 22.0971C32.301 21.6886 32.1253 21.1197 32.1253 20.4924C32.1253 19.1212 32.916 18.2313 34.1167 18.2313C34.5852 18.2313 35.1709 18.4064 35.493 18.8586V16.6996H36.2691ZM32.9453 20.5508C32.9453 21.3094 33.3553 22.0971 34.2484 22.0971C35.1856 22.0971 35.5223 21.2802 35.5223 20.5216C35.5223 20.1569 35.4345 18.9315 34.2045 18.9315C33.0624 18.9315 32.9453 20.0694 32.9453 20.5508ZM23.6036 21.3385C23.4718 21.8345 23.1058 22.0971 22.5347 22.0971C22.1394 22.0971 21.8026 21.9804 21.5829 21.7324C21.3487 21.4844 21.2315 21.1343 21.2315 20.7404H24.4382V20.7112C24.4675 19.938 24.2332 19.2086 23.7939 18.7564C23.4572 18.4063 23.0033 18.2313 22.4615 18.2313C21.2755 18.2313 20.4116 19.1795 20.4116 20.4924C20.4555 21.9512 21.2169 22.7827 22.5054 22.7827C23.4865 22.7827 24.16 22.2575 24.365 21.3385H23.6036ZM22.4176 18.9169C23.0618 18.9169 23.5743 19.4129 23.6182 20.0693H21.2169C21.2901 19.4858 21.6708 18.9169 22.4176 18.9169ZM29.7241 22.0971C30.2805 22.0971 30.6612 21.8199 30.793 21.3385V21.3531H31.569C31.364 22.2575 30.6905 22.7827 29.7094 22.7827C28.4209 22.7827 27.6595 21.9512 27.6156 20.4924C27.6156 19.1795 28.4795 18.2313 29.6655 18.2313C30.2073 18.2313 30.6612 18.4063 30.998 18.7564C31.4372 19.2086 31.6715 19.938 31.6422 20.7112V20.7404H28.4209C28.4209 21.1343 28.538 21.4844 28.7723 21.7324C28.9919 21.9804 29.3287 22.0971 29.7241 22.0971ZM30.8076 20.0693C30.7637 19.4129 30.2512 18.9169 29.6069 18.9169C28.8602 18.9169 28.4795 19.4858 28.4062 20.0693H30.8076ZM15.9894 22.6803V20.7401C15.9894 19.5731 16.4726 19.0479 17.5122 19.0479H17.5415V18.2456H17.5122C16.7948 18.2164 16.2969 18.5082 15.9455 19.1792V18.3477H15.2134V22.6949L15.9894 22.6803ZM25.9757 20.7401V22.6803L25.1996 22.6949V18.3477H25.9317V19.1792C26.2831 18.5082 26.7663 18.2164 27.4985 18.2456H27.5277V19.0479H27.4985C26.4589 19.0479 25.9757 19.5731 25.9757 20.7401Z" fill="#0072AA"/>
<path d="M20.0307 22.0098H19.489C19.1229 22.0098 18.9618 21.7764 18.9618 21.4408V19.0338H20.0307V18.3482H18.9618V17.0645H18.1858V21.4117C18.1858 22.3307 18.6543 22.7246 19.4743 22.7246H20.0161V22.0098" fill="#0072AA"/>
<path d="M43.6492 24.3143C43.1221 24.6206 42.6389 24.8103 42.1411 24.8103C40.8379 24.8103 39.7544 23.7453 39.6958 22.4762L42.2289 20.9736L46.1531 22.7242L43.6492 24.3143Z" fill="#78ADD2"/>
<path d="M45.1569 17.8668L43.2826 17.0498C42.448 16.6706 41.6573 16.3642 41.6573 15.4452C41.6573 14.9638 41.8038 14.7158 42.0381 14.4678L46.0061 16.2183L45.0251 16.7873C44.7469 16.9477 44.5712 17.0936 44.5712 17.3124C44.5419 17.5167 44.8055 17.7063 45.1569 17.8668Z" fill="#A4D0A0"/>
<path d="M47.002 9.24509L45.0838 10.4121C44.9081 10.5142 44.6885 10.6747 44.6885 10.9373C44.6885 11.2291 45.1277 11.4479 45.5231 11.6375L43.1217 10.5726C42.4189 10.2662 41.7014 9.90155 41.7014 9.05545C41.7014 8.69075 41.8039 8.41358 41.965 8.16558L47.163 5C47.7926 5.35011 48.393 6.06492 48.393 7.02772C48.393 8.03429 47.8659 8.71993 47.002 9.24509Z" fill="#78ADD2"/>
<path d="M51.0874 12.9941L50.6042 13.2566L46.6215 11.5061L51.2485 8.73438C51.8781 9.09907 52.4784 9.79929 52.4784 10.7475C52.4931 11.7833 51.9806 12.4835 51.0874 12.9941Z" fill="#A4D0A0"/>
<path d="M47.7342 16.3491L50.0917 17.3849C50.9702 17.7787 51.2484 18.2456 51.2484 18.8291C51.2484 19.1646 51.0581 19.5001 50.7945 19.7189L46.8411 17.9684L47.5146 17.5891C48.0857 17.2827 48.2614 17.0931 48.2614 16.8889C48.2467 16.6701 48.1149 16.5242 47.7342 16.3491Z" fill="#78ADD2"/>
<path d="M51.9221 24.9998C50.9264 24.2267 49.8575 23.7161 48.5543 23.1326L42.551 20.4922C41.0428 19.8211 40.0471 18.9313 40.0471 17.4287C40.0471 15.9699 40.75 15.2697 41.6724 14.6862L42.0092 14.4819C41.7749 14.7299 41.6285 14.9779 41.6285 15.4593C41.6285 16.3784 42.4192 16.6847 43.2538 17.064L50.2382 20.1275C51.4535 20.6526 52.5664 21.5425 52.5664 23.0596C52.581 23.8766 52.2589 24.6206 51.9221 24.9998Z" fill="#21AA47"/>
<path d="M51.2192 19.4415L50.7799 19.7187C51.0435 19.4853 51.2338 19.1643 51.2338 18.8288C51.2338 18.2453 50.9556 17.7785 50.0771 17.3846L42.6095 14.1169C41.1013 13.4605 40.1642 12.5998 40.1642 11.0972C40.1642 9.72595 40.8524 8.8215 41.9359 8.16504C41.7748 8.41303 41.6723 8.70479 41.6723 9.0549C41.6723 9.90101 42.3752 10.2657 43.0927 10.572L50.3406 13.7522C51.6584 14.3357 52.7273 15.211 52.7273 16.8157C52.742 18.0703 52.1563 18.858 51.2192 19.4415Z" fill="#0072AA"/>
</svg>
