<svg width="52" height="30" viewBox="0 0 52 30" fill="none" xmlns="http://www.w3.org/2000/svg">
<path d="M32.408 19.0293C32.408 20.3851 31.8602 21.6272 30.8654 22.5256C29.8073 23.4812 28.3372 23.9857 26.6112 23.9857C24.6375 23.9857 23.1299 23.377 22.2135 22.8653C21.2129 22.3067 20.6809 21.7466 20.6584 21.7227L20.4532 21.5039L22.512 18.7802L22.8297 19.0754C22.8472 19.0905 24.5441 20.6278 26.6579 20.6278C28.1321 20.6278 28.6582 19.8353 28.6582 19.0945C28.6582 18.1214 27.3291 17.574 25.7898 16.9406C24.6633 16.4775 23.4976 15.9977 22.562 15.2561C21.4489 14.3729 20.9077 13.2955 20.9077 11.9627C20.9077 10.5957 21.5139 9.3433 22.6137 8.43541C23.6961 7.54264 25.182 7.0509 26.7954 7.0509C30.1608 7.0509 31.9061 8.7696 31.9786 8.84281L32.1679 9.03298L30.511 11.9977L30.1466 11.681C30.1325 11.6691 28.6424 10.4079 26.7721 10.4079C26.1776 10.4079 25.6364 10.5663 25.2487 10.8551C24.8809 11.128 24.6792 11.506 24.6792 11.9198C24.6792 12.8634 25.9708 13.3727 27.4659 13.9631C28.5498 14.3904 29.7789 14.875 30.7287 15.6269C31.8585 16.5205 32.408 17.6336 32.408 19.0293ZM48.1409 23.7414H52V7.29518H48.1409V23.7414ZM46.4374 18.8065C46.4374 20.3923 45.7953 21.6917 44.5796 22.5645C43.5073 23.334 42.0506 23.7406 40.3654 23.7406H34.0148V7.29439H40.2962C41.8755 7.29439 43.2229 7.68746 44.1927 8.43064C45.2225 9.21917 45.7662 10.357 45.7662 11.72C45.7662 13.0687 45.1975 14.2488 44.1927 15.019C44.8156 15.3229 45.3384 15.7781 45.7203 16.351C46.1897 17.0544 46.4374 17.9042 46.4374 18.8065ZM42.7243 18.6314C42.7243 18.0792 42.5634 17.6957 42.169 17.309C41.7929 16.9406 41.2492 16.7448 40.5963 16.7448H39.4023V13.7188H40.2953C41.4769 13.7188 42.0764 13.165 42.0764 12.0741C42.0764 10.9944 41.411 10.3753 40.2495 10.3753H37.6587V20.6628H40.5963C41.9088 20.6628 42.7243 19.8839 42.7243 18.6314Z" fill="#292075"/>
<path d="M8.90959 7C3.9891 7 0 10.8161 0 15.5219C0 19.934 3.5063 23.5624 7.9982 23.9992V17.8095C7.03262 17.4578 6.3447 16.565 6.3447 15.5219C6.3447 14.1716 7.49456 13.0743 8.90959 13.0743C10.3238 13.0743 11.4745 14.1724 11.4745 15.5219C11.4745 16.565 10.7866 17.4578 9.82098 17.8095V23.9992C14.3145 23.5624 17.82 19.9332 17.82 15.5219C17.82 10.8161 13.8309 7 8.90959 7Z" fill="#24B1E7"/>
</svg>
