<svg width="53" height="29" viewBox="0 0 53 29" fill="none" xmlns="http://www.w3.org/2000/svg">
<g clip-path="url(#clip0)">
<path fill-rule="evenodd" clip-rule="evenodd" d="M29.6801 14.5874C29.6801 13.6699 29.7817 12.8544 29.9995 12.1554C30.2173 11.4563 30.4787 10.9029 30.8127 10.4223C31.1321 9.94176 31.5096 9.56312 31.9453 9.28642C32.3809 9.00972 32.802 8.80584 33.2376 8.63108C33.6732 8.47089 34.0507 8.35438 34.4283 8.31069C34.8058 8.25244 35.1253 8.25244 35.4012 8.25244C35.677 8.25244 35.9965 8.25244 36.374 8.31069C36.7516 8.36895 37.1872 8.47089 37.5647 8.63108C38.0003 8.79128 38.4214 9.00972 38.857 9.28642C39.2927 9.56312 39.6702 9.94176 39.9896 10.4223C40.3091 10.9029 40.585 11.4563 40.8028 12.1554C41.0206 12.8544 41.1223 13.6117 41.1223 14.5874C41.1223 15.5631 41.0206 16.3204 40.8028 17.0194C40.585 17.7185 40.3236 18.2573 39.9896 18.7524C39.6702 19.233 39.2927 19.6117 38.857 19.8884C38.4214 20.1651 38.0003 20.3689 37.5647 20.5437C37.1291 20.7039 36.7516 20.8204 36.374 20.8641C36.1157 20.9039 35.8846 20.8893 35.6761 20.876C35.5798 20.8699 35.4883 20.8641 35.4012 20.8641C35.1253 20.8641 34.8058 20.8641 34.4283 20.8058C34.0507 20.7476 33.6151 20.6456 33.2376 20.4855C32.802 20.3253 32.3809 20.1068 31.9453 19.8301C31.5096 19.5534 31.1321 19.1748 30.8127 18.6942C30.4932 18.2136 30.2173 17.6602 29.9995 16.9612C29.7962 16.3204 29.6801 15.5049 29.6801 14.5874ZM32.1631 14.5874C32.1631 15.4029 32.2647 16.102 32.4825 16.6408C32.7003 17.1796 32.9617 17.6165 33.2957 17.9369C33.6151 18.2573 33.9491 18.4757 34.3702 18.5922C34.8058 18.6942 35.1253 18.7524 35.4447 18.7524C35.7642 18.7524 36.1417 18.6942 36.5192 18.5922C36.8968 18.4903 37.2743 18.2719 37.5938 17.9369C37.9132 17.6165 38.1891 17.1796 38.4069 16.6408C38.6247 16.102 38.7264 15.4029 38.7264 14.5874C38.7264 13.7719 38.6247 13.0728 38.4069 12.534C38.1891 11.9952 37.9277 11.5583 37.5938 11.2379C37.2743 10.9175 36.9403 10.699 36.5192 10.5825C36.1417 10.4806 35.7642 10.4223 35.4447 10.4223C35.1253 10.4223 34.7477 10.4806 34.3702 10.5825C33.9927 10.6845 33.6151 10.9029 33.2957 11.2379C32.9762 11.5583 32.7003 11.9952 32.4825 12.534C32.2792 13.0583 32.1631 13.7136 32.1631 14.5874ZM27.7342 16.3641C27.7342 17.1797 27.6326 17.8204 27.4148 18.4175C27.197 18.9564 26.8775 19.4515 26.4419 19.8302C26.0063 20.2088 25.5271 20.4855 24.8737 20.6457L24.7868 20.6606H24.7868C24.2161 20.7587 23.6021 20.8641 22.8698 20.8641C22.594 20.8641 22.2745 20.8641 21.9551 20.8059C21.8961 20.7951 21.8366 20.7849 21.7768 20.7746L21.7767 20.7745C21.5127 20.729 21.2426 20.6824 20.9822 20.5874C20.6946 20.4957 20.3952 20.3448 20.1052 20.1988L20.1052 20.1988L20.0093 20.1505C19.6898 19.9903 19.3559 19.7137 19.1526 19.4515C18.8331 19.0729 18.6153 18.636 18.4556 18.1554C18.2959 17.6748 18.2378 17.1214 18.2378 16.5243V8.57288H20.7789V16.3204C20.7789 16.7573 20.837 17.0777 20.9386 17.3981C21.0312 17.6898 21.1839 17.897 21.3311 18.0967L21.3742 18.1554C21.592 18.3738 21.8098 18.4758 22.0712 18.5923C22.3471 18.6942 22.6085 18.7525 22.8844 18.7525C23.7411 18.7525 24.3364 18.534 24.714 18.1554C25.0915 17.7768 25.2512 17.1797 25.2512 16.4806V8.57288H27.7342V16.3641ZM43.1697 8.57279H43.1261V8.55823H43.1697V8.57279ZM43.1697 8.57279V20.4708H48.1938H48.1938C48.7892 20.4708 49.3264 20.4708 49.7039 20.4126C50.1395 20.3543 50.459 20.2961 50.7349 20.1942C50.9131 20.1644 51.0711 20.0736 51.2226 19.9866C51.2933 19.946 51.3626 19.9062 51.4319 19.8738C51.6497 19.7573 51.8094 19.5971 51.9691 19.4369C52.2886 19.1747 52.5645 18.7961 52.7242 18.3592C52.8984 17.9223 53.0001 17.4854 53.0001 17.0048C53.0001 16.7427 52.9565 16.4223 52.8984 16.1456C52.8404 15.8689 52.7823 15.6068 52.6226 15.3301C52.5209 15.0679 52.3031 14.8495 52.0853 14.631C51.8239 14.4126 51.548 14.1941 51.1705 14.0922C51.2463 14.0162 51.3405 13.965 51.4413 13.9103C51.495 13.8811 51.5506 13.851 51.6061 13.8155C51.7658 13.699 51.9256 13.5388 52.0853 13.3786C52.245 13.2184 52.3612 12.9563 52.4628 12.6796C52.5645 12.4175 52.6226 12.0388 52.6226 11.6019C52.6226 11.3252 52.5645 11.0048 52.4628 10.6262C52.3467 10.3058 52.1434 9.97085 51.8675 9.65046C51.5916 9.37376 51.2141 9.11163 50.7349 8.89318C50.2557 8.67473 49.6604 8.57279 48.9053 8.57279H43.1697ZM48.4116 13.2767H45.493V13.2621H45.4349V10.6116H48.2954C48.8908 10.6116 49.3264 10.7281 49.6458 10.8883C49.9653 11.1068 50.125 11.4417 50.125 11.9223C50.125 12.4175 49.9653 12.7378 49.6458 12.9563C49.3264 13.1747 48.8908 13.2767 48.4116 13.2767ZM48.5713 18.4757H45.493V18.4466H45.4349V15.2573H48.6149C48.8327 15.2573 49.0505 15.2573 49.2683 15.3155C49.4123 15.354 49.531 15.418 49.6578 15.4864C49.7228 15.5215 49.7899 15.5577 49.8637 15.5922C50.0815 15.7087 50.1976 15.8689 50.2993 16.0291C50.4009 16.2039 50.459 16.4077 50.459 16.6844C50.459 17.3398 50.2993 17.7621 49.9798 18.0388C49.6458 18.3155 49.1667 18.4757 48.5713 18.4757Z" fill="#00367B"/>
<path d="M3.55762 22H2.32338C2.16365 22 2.04749 21.8981 2.04749 21.7233V7.2767C2.04749 7.1165 2.14913 7 2.32338 7H3.55762C3.71735 7 3.83351 7.10194 3.83351 7.2767V21.7816C3.83351 21.8835 3.71735 22 3.55762 22Z" fill="#ED1C24"/>
<path d="M6.57789 22H5.34364C5.18391 22 5.06775 21.8981 5.06775 21.7233V7.2767C5.06775 7.1165 5.16939 7 5.34364 7H6.57789C6.73761 7 6.85378 7.10194 6.85378 7.2767V21.7816C6.85378 21.8835 6.75213 22 6.57789 22Z" fill="#ED1C24"/>
<path d="M9.55445 22H8.3202C8.16048 22 8.04431 21.8981 8.04431 21.7233V7.2767C8.04431 7.1165 8.14596 7 8.3202 7H9.55445C9.71417 7 9.83034 7.10194 9.83034 7.2767V21.7816C9.81582 21.8835 9.71417 22 9.55445 22Z" fill="#ED1C24"/>
<path d="M12.5167 22H11.2825C11.1228 22 11.0066 21.8981 11.0066 21.7233V7.2767C11.0066 7.1165 11.1082 7 11.2825 7H12.5167C12.6765 7 12.7926 7.10194 12.7926 7.2767V21.7816C12.7926 21.8835 12.6765 22 12.5167 22Z" fill="#ED1C24"/>
<path d="M0 15.1263V13.8739C0 13.7137 0.101644 13.5972 0.275891 13.5972H14.5786C14.7384 13.5972 14.8545 13.6991 14.8545 13.8739V15.1263C14.8545 15.2865 14.7529 15.403 14.5786 15.403H0.275891C0.159726 15.3884 0 15.2865 0 15.1263Z" fill="#ED1C24"/>
</g>
<defs>
<clipPath id="clip0">
<rect width="53" height="29" fill="white"/>
</clipPath>
</defs>
</svg>
