<svg width="100" height="100" viewBox="0 0 100 100" fill="none" xmlns="http://www.w3.org/2000/svg">
<g filter="url(#filter0_i_5070_13137)">
<g clip-path="url(#clip0_5070_13137)">
<path d="M0 50C0 22.3858 22.3858 0 50 0C77.6142 0 100 22.3858 100 50V100H0V50Z" fill="#153947"/>
<path d="M61.2398 59.8774H27.4411V140.71H61.2398V59.8774Z" fill="#9ED8DA"/>
<path d="M58.8761 61.2583H28.7175V78.662H58.8761V61.2583Z" fill="white"/>
<path d="M29.6477 61.2583H28.7179V78.662H29.6477V61.2583Z" fill="#007C80"/>
<path d="M44.2613 61.2583H43.3315V78.662H44.2613V61.2583Z" fill="#007C80"/>
<path d="M28.7177 61.258V62.189H58.8762V61.258H28.7177Z" fill="#007C80"/>
<path opacity="0.28" d="M29.6482 63.1994L58.8759 67.5501V61.2583H29.6482V63.1994Z" fill="#007C80"/>
<path d="M58.8759 91.3398H28.7173V108.744H58.8759V91.3398Z" fill="white"/>
<path d="M29.6476 91.3398H28.7179V108.744H29.6476V91.3398Z" fill="#007C80"/>
<path d="M44.2612 91.3398H43.3314V108.744H44.2612V91.3398Z" fill="#007C80"/>
<path d="M28.7178 91.3391V92.27H58.8763V91.3391H28.7178Z" fill="#007C80"/>
<path opacity="0.28" d="M29.6479 93.281L58.8757 97.6316V91.3398H29.6479V93.281Z" fill="#007C80"/>
<path d="M61.24 59.8774L67.4213 63.5339V140.71H61.24V59.8774Z" fill="#036366"/>
<path d="M81.5023 51.1646H47.7036V131.997H81.5023V51.1646Z" fill="#9ED8DA"/>
<path d="M79.1386 52.5454H48.98V69.9491H79.1386V52.5454Z" fill="white"/>
<path d="M49.9106 52.5454H48.9808V69.9491H49.9106V52.5454Z" fill="#007C80"/>
<path d="M64.524 52.5454H63.5942V69.9491H64.524V52.5454Z" fill="#007C80"/>
<path d="M48.9807 52.5451V53.4761H79.1392V52.5451H48.9807Z" fill="#007C80"/>
<path opacity="0.28" d="M49.9108 54.4865L79.1386 58.8372V52.5454H49.9108V54.4865Z" fill="#007C80"/>
<path d="M79.1384 82.627H48.9799V100.031H79.1384V82.627Z" fill="white"/>
<path d="M49.9101 82.627H48.9803V100.031H49.9101V82.627Z" fill="#007C80"/>
<path d="M64.524 82.627H63.5942V100.031H64.524V82.627Z" fill="#007C80"/>
<path d="M48.9804 82.6267V83.5576H79.1389V82.6267H48.9804Z" fill="#007C80"/>
<path opacity="0.28" d="M49.9107 84.5681L79.1384 88.9187V82.627H49.9107V84.5681Z" fill="#007C80"/>
<path d="M81.5023 51.1646L87.6836 54.821V131.997H81.5023V51.1646Z" fill="#036366"/>
<path d="M104.319 41H70.52V121.833H104.319V41Z" fill="#9ED8DA"/>
<path d="M101.955 42.3809H71.7963V59.7845H101.955V42.3809Z" fill="white"/>
<path d="M72.7268 42.3809H71.797V59.7845H72.7268V42.3809Z" fill="#007C80"/>
<path d="M87.34 42.3809H86.4102V59.7845H87.34V42.3809Z" fill="#007C80"/>
<path d="M71.7968 42.3801V43.311H101.955V42.3801H71.7968Z" fill="#007C80"/>
<path opacity="0.28" d="M72.7269 44.322L101.955 48.6727V42.3809H72.7269V44.322Z" fill="#007C80"/>
<path d="M101.955 72.4624H71.7962V89.8661H101.955V72.4624Z" fill="white"/>
<path d="M72.7265 72.4624H71.7967V89.8661H72.7265V72.4624Z" fill="#007C80"/>
<path d="M87.34 72.4624H86.4102V89.8661H87.34V72.4624Z" fill="#007C80"/>
<path d="M71.7966 72.4621V73.3931H101.955V72.4621H71.7966Z" fill="#007C80"/>
<path opacity="0.28" d="M72.7267 74.4035L101.954 78.7542V72.4624H72.7267V74.4035Z" fill="#007C80"/>
<path d="M101.955 99.5684H71.7963V116.972H101.955V99.5684Z" fill="white"/>
<path d="M72.7265 99.5684H71.7967V116.972H72.7265V99.5684Z" fill="#007C80"/>
<path d="M87.34 99.5684H86.4102V116.972H87.34V99.5684Z" fill="#007C80"/>
<path d="M71.7966 99.5681V100.499H101.955V99.5681H71.7966Z" fill="#007C80"/>
<path opacity="0.28" d="M72.7267 101.509L101.954 105.86V99.5684H72.7267V101.509Z" fill="#007C80"/>
</g>
</g>
<defs>
<filter id="filter0_i_5070_13137" x="0" y="0" width="100" height="100" filterUnits="userSpaceOnUse" color-interpolation-filters="sRGB">
<feFlood flood-opacity="0" result="BackgroundImageFix"/>
<feBlend mode="normal" in="SourceGraphic" in2="BackgroundImageFix" result="shape"/>
<feColorMatrix in="SourceAlpha" type="matrix" values="0 0 0 0 0 0 0 0 0 0 0 0 0 0 0 0 0 0 127 0" result="hardAlpha"/>
<feOffset dx="10"/>
<feComposite in2="hardAlpha" operator="arithmetic" k2="-1" k3="1"/>
<feColorMatrix type="matrix" values="0 0 0 0 0 0 0 0 0 0.8 0 0 0 0 0.8 0 0 0 1 0"/>
<feBlend mode="normal" in2="shape" result="effect1_innerShadow_5070_13137"/>
</filter>
<clipPath id="clip0_5070_13137">
<path d="M0 50C0 22.3858 22.3858 0 50 0C77.6142 0 100 22.3858 100 50V100H0V50Z" fill="white"/>
</clipPath>
</defs>
</svg>
