<svg width="649" height="388" viewBox="0 0 649 388" fill="none" xmlns="http://www.w3.org/2000/svg">
<g filter="url(#filter0_i_5398_24644)">
<g clip-path="url(#clip0_5398_24644)">
<rect width="649" height="388" rx="10" fill="#1E4959"/>
<path opacity="0.3" d="M140.635 343.189L116.319 316.052L29.8952 363.257L-24.7608 356.827L-30.9974 389.929L-5.28797 401.257L36.6825 401.257L140.635 343.189Z" fill="#007C80"/>
<path d="M148.062 328.091L129.064 338.196L134.318 331.728L148.062 328.091Z" fill="#007C80"/>
<path d="M116.948 338.373L159.773 244.736L215.591 210.246L167.742 317.592L116.948 338.373Z" fill="#007C80"/>
<path opacity="0.5" d="M157.063 311.1L135.629 332.533L122.771 336.463L152.421 311.1C153.849 310.242 156.111 310.742 157.063 311.1Z" fill="#153947"/>
<path d="M127.902 329.053C126.221 329.766 124.542 328.038 125.303 326.378L160.277 250.092C160.298 250.048 160.319 250.006 160.343 249.963C160.527 249.636 161.404 248.108 162.27 247.135C163.24 246.044 164.515 245.269 164.617 245.207C164.622 245.204 164.626 245.202 164.631 245.199L202.148 222.561C203.832 221.544 205.818 223.316 205 225.105L164.894 312.796C164.687 313.251 164.316 313.611 163.856 313.806L127.902 329.053Z" fill="#0D2B37"/>
<path d="M119.76 339.657L116.978 338.387L166.23 318.13L168.271 320.288L119.76 339.657Z" fill="#00CCCC"/>
<path d="M168.269 320.288L166.233 318.149L215.59 210.246L217.829 212.221L168.269 320.288Z" fill="#E8FEFF"/>
<path d="M129.162 295.162L126.348 316.215L122.09 325.887L123.024 326.441L127.29 316.725C128.71 313.894 128.737 312.527 130.323 310.642C135.834 305.701 137.97 296.517 138.557 292.96C139.061 289.914 141.787 287.062 142.774 284.919C143.563 283.205 145.085 279.525 142.345 277.197C141.001 279.716 141.397 279.205 141.397 279.205C134.664 289.717 130.8 290.467 129.162 295.162Z" fill="#00CCCC"/>
<path d="M100.685 334.206C95.4806 349.247 89.0159 357.606 88.1836 358.554L99.92 372.259L105.34 367.617C110.515 363.969 121.279 356.225 122.936 354.429C125.008 352.185 130.718 345.414 133.253 343.713C135.282 342.352 135.35 338.938 135.13 337.401L133.91 338.446L130.929 340.999L130.794 339.469L133.097 337.496C134.816 336.212 134.78 333.154 134.548 331.785L130.483 335.266L130.308 334.24L133.154 331.803C135.399 330.256 135.005 326.925 134.527 325.452L129.378 329.862L129.184 329.087L153.981 307.852C153.454 305.481 149.605 307.13 147.747 308.251L112.146 328.39C115.823 321.713 119.887 313.294 117.678 309.069C115.47 304.845 115.665 308.912 113.749 312.435C111.833 315.957 105.89 319.165 100.685 334.206Z" fill="#9EE5E8"/>
<mask id="mask0_5398_24644" style="mask-type:alpha" maskUnits="userSpaceOnUse" x="88" y="306" width="66" height="67">
<path d="M100.681 334.206C95.4767 349.247 89.012 357.605 88.1797 358.553L99.9161 372.258L105.336 367.616C110.511 363.969 121.276 356.224 122.932 354.429C125.004 352.185 130.714 345.413 133.25 343.712C135.278 342.351 135.346 338.938 135.126 337.401L133.907 338.445L130.926 340.998L130.79 339.468L133.093 337.496C134.812 336.212 134.777 333.153 134.544 331.784L130.479 335.266L130.304 334.239L133.15 331.802C135.395 330.255 135.001 326.924 134.523 325.452L129.374 329.861L129.18 329.087L153.977 307.851C153.45 305.48 149.601 307.13 147.743 308.251L112.142 328.39C115.819 321.713 119.883 313.293 117.675 309.069C115.466 304.845 115.661 308.912 113.745 312.434C111.829 315.956 105.886 319.164 100.681 334.206Z" fill="#9EE5E8"/>
</mask>
<g mask="url(#mask0_5398_24644)">
<path opacity="0.3" d="M111.34 366.83L89.1915 350.754L103.838 371.473L111.34 366.83Z" fill="#153947"/>
</g>
<path d="M25.2788 389.889L-10.7204 336.901L-48.3378 351.92L17.8877 432.573L107.236 379.021L90.6637 346.685L25.2788 389.889Z" fill="#007C80"/>
<rect x="-29" y="20" width="678" height="11" fill="#007C80"/>
</g>
</g>
<defs>
<filter id="filter0_i_5398_24644" x="0" y="0" width="649" height="388" filterUnits="userSpaceOnUse" color-interpolation-filters="sRGB">
<feFlood flood-opacity="0" result="BackgroundImageFix"/>
<feBlend mode="normal" in="SourceGraphic" in2="BackgroundImageFix" result="shape"/>
<feColorMatrix in="SourceAlpha" type="matrix" values="0 0 0 0 0 0 0 0 0 0 0 0 0 0 0 0 0 0 127 0" result="hardAlpha"/>
<feOffset dx="-5"/>
<feComposite in2="hardAlpha" operator="arithmetic" k2="-1" k3="1"/>
<feColorMatrix type="matrix" values="0 0 0 0 0.0422142 0 0 0 0 0.395691 0 0 0 0 0.408166 0 0 0 1 0"/>
<feBlend mode="normal" in2="shape" result="effect1_innerShadow_5398_24644"/>
</filter>
<clipPath id="clip0_5398_24644">
<rect width="649" height="388" rx="10" fill="white"/>
</clipPath>
</defs>
</svg>
