<svg width="40" height="40" viewBox="0 0 40 40" fill="none" xmlns="http://www.w3.org/2000/svg">
<rect x="2" y="3" width="35" height="35" rx="17.5" fill="#0E2638"/>
<path fill-rule="evenodd" clip-rule="evenodd" d="M16 13.5C14.6193 13.5 13.5 14.6193 13.5 16C13.5 17.3807 14.6193 18.5 16 18.5C17.3807 18.5 18.5 17.3807 18.5 16C18.5 14.6193 17.3807 13.5 16 13.5ZM12 16C12 13.7909 13.7909 12 16 12C18.2092 12 20 13.7909 20 16C20 18.2091 18.2092 20 16 20C13.7909 20 12 18.2091 12 16ZM25 14.5C23.8954 14.5 23 15.3954 23 16.5C23 17.6046 23.8954 18.5 25 18.5C26.1046 18.5 27 17.6046 27 16.5C27 15.3954 26.1046 14.5 25 14.5ZM21.5 16.5C21.5 14.567 23.067 13 25 13C26.933 13 28.5 14.567 28.5 16.5C28.5 18.433 26.933 20 25 20C23.067 20 21.5 18.433 21.5 16.5ZM12.6745 23.8014C11.8119 24.6308 11.174 25.8359 10.8092 27.3066C10.6697 27.869 11.1272 28.5 11.9016 28.5H20.0984C20.8729 28.5 21.3303 27.869 21.1908 27.3066C20.826 25.8359 20.1882 24.6308 19.3255 23.8014C18.475 22.9837 17.3761 22.5 16 22.5C14.6239 22.5 13.525 22.9837 12.6745 23.8014ZM11.6349 22.7201C12.7638 21.6347 14.235 21 16 21C17.7651 21 19.2362 21.6347 20.3651 22.7201C21.4819 23.7939 22.2328 25.2768 22.6467 26.9455C23.0667 28.6387 21.6481 30 20.0984 30H11.9016C10.352 30 8.93338 28.6387 9.35334 26.9455C9.7672 25.2768 10.5181 23.7939 11.6349 22.7201ZM25.0001 22.5C24.611 22.5 24.251 22.544 23.9187 22.6252C23.5163 22.7234 23.1104 22.4769 23.0122 22.0745C22.9139 21.6722 23.1604 21.2663 23.5628 21.168C24.0173 21.057 24.4971 21 25.0001 21C28.1065 21 30.0619 23.1398 30.8552 25.925C31.3421 27.6346 29.8839 29 28.3461 29H25.7501C25.3359 29 25.0001 28.6642 25.0001 28.25C25.0001 27.8358 25.3359 27.5 25.7501 27.5H28.3461C29.1341 27.5 29.5628 26.8633 29.4126 26.3359C28.7399 23.9742 27.2315 22.5 25.0001 22.5Z" fill="white"/>
</svg>
