<svg width="40" height="40" viewBox="0 0 40 40" fill="none" xmlns="http://www.w3.org/2000/svg">
<rect x="2" y="3" width="35" height="35" rx="17.5" fill="#0E2638"/>
<path fill-rule="evenodd" clip-rule="evenodd" d="M15.75 11C16.1642 11 16.5 11.3358 16.5 11.75V13H23.5V11.75C23.5 11.3358 23.8358 11 24.25 11C24.6642 11 25 11.3358 25 11.75V13H26.25C27.7688 13 29 14.2312 29 15.75V27.25C29 28.7688 27.7688 30 26.25 30H13.75C12.2312 30 11 28.7688 11 27.25V15.75C11 14.2312 12.2312 13 13.75 13H15V11.75C15 11.3358 15.3358 11 15.75 11ZM13.75 14.5C13.0596 14.5 12.5 15.0596 12.5 15.75V27.25C12.5 27.9404 13.0596 28.5 13.75 28.5H26.25C26.9404 28.5 27.5 27.9404 27.5 27.25V15.75C27.5 15.0596 26.9404 14.5 26.25 14.5H13.75ZM23.2803 19.0447C23.5732 19.3376 23.5732 19.8124 23.2803 20.1053L19.4303 23.9553C19.1374 24.2482 18.6626 24.2482 18.3697 23.9553L16.7197 22.3053C16.4268 22.0124 16.4268 21.5376 16.7197 21.2447C17.0126 20.9518 17.4874 20.9518 17.7803 21.2447L18.9 22.3644L22.2197 19.0447C22.5126 18.7518 22.9874 18.7518 23.2803 19.0447Z" fill="white"/>
</svg>
